<svg version="1.2" xmlns="http://www.w3.org/2000/svg" viewBox="0 0 3000 800" width="1000" height="267"><style>.a{fill:none;stroke:#918f90;stroke-width:2}.b{fill:none;stroke:#808080;stroke-width:2}.c{fill:#231f20}.d{fill:#fff}</style><path fill-rule="evenodd" class="a" d="m751 400c0-46.9-9.3-93.3-27.2-136.6-17.9-43.3-44.2-82.7-77.4-115.8-33.1-33.1-72.4-59.5-115.8-77.4-43.3-17.9-89.7-27.2-136.6-27.2-46.9 0-93.3 9.3-136.6 27.2-43.3 17.9-82.7 44.3-115.8 77.4-33.2 33.1-59.5 72.5-77.4 115.8-17.9 43.3-27.2 89.7-27.2 136.6 0 46.9 9.3 93.3 27.2 136.6 17.9 43.4 44.2 82.7 77.4 115.9 33.1 33.1 72.5 59.4 115.8 77.3 43.3 17.9 89.7 27.2 136.6 27.2 46.9 0 93.3-9.3 136.6-27.2 43.4-17.9 82.7-44.2 115.8-77.3 33.2-33.2 59.5-72.5 77.4-115.9 17.9-43.3 27.2-89.7 27.2-136.6z"/><path fill-rule="evenodd" class="a" d="m743.2 400c0-45.9-9-91.3-26.6-133.7-17.5-42.4-43.2-80.8-75.7-113.3-32.4-32.4-70.9-58.1-113.3-75.7-42.4-17.5-87.7-26.5-133.6-26.5-45.9 0-91.3 9-133.7 26.5-42.4 17.6-80.8 43.3-113.3 75.7-32.4 32.5-58.2 70.9-75.7 113.3-17.5 42.4-26.6 87.8-26.5 133.7 0 45.9 9 91.2 26.5 133.6 17.5 42.4 43.3 80.9 75.7 113.3 32.5 32.5 70.9 58.2 113.3 75.7 42.4 17.6 87.8 26.6 133.7 26.6 45.9 0 91.2-9 133.6-26.6 42.4-17.5 80.9-43.2 113.3-75.7 32.5-32.4 58.2-70.9 75.7-113.3 17.6-42.4 26.6-87.7 26.6-133.6z"/><path fill-rule="evenodd" class="a" d="m486.9 314.9c16.8 18.7 32.1 38.4 44.4 60.4 17.1 30.8 20 70.2-0.7 100.2q-2.8 4.2-5.7 8.4c-5.6 8.1-14.3 15.2-22.8 20.7-15.9 10.1-34 14-52.9 14.5q-0.4 0-0.4 0.4v1.6q0 0.3 0.4 0.5 1.2 0.2 1.7 1.3 0.1 0.3 0.3 0.3c14.9 0.4 31-3.9 44.2-10 11.5-5.3 21.9-13.7 30.2-23.2 4.7-5.4 9.7-12.9 13.2-19.1q13.8-24.3 11-52.4-2.5-24.8-14.9-46.2-1.8-3.2-6.6-10.5-17.4-26.9-38.2-51.2 0-0.1-0.1-0.2 0 0 0-0.1 0 0 0-0.1 0.1-0.1 0.1-0.1c3.3-4 6.9-8.1 9.8-12.4 2.2-3.2 3.9-6.1 0.9-9.5-2-2.3-5.1-3.4-7.9-2.4q-1.4 0.5-2 1.3-4.6 6.2-8.8 12.6 0 0.1-0.1 0.1-0.1 0.1-0.2 0.1-0.1 0-0.2 0 0-0.1-0.1-0.1c-15.4-16.7-22-38.1-19.6-60.7 1.7-15.4 9.3-29.8 22.7-38.2q0.6-0.4 0.3-1.1 0-0.1 0-0.1-0.1-0.1-0.2-0.1 0-0.1 0-0.1-0.1 0-0.1 0l-3.4-0.4q-0.3-0.1-0.6 0.2c-6.5 4.9-12.5 10.4-16.5 17.4-4.6 8-6.4 18.7-6.7 28-0.4 15 2.6 31.8 10.7 44.5q4.8 7.6 10.3 14.4 0.2 0.2 0.2 0.3 0.1 0.2 0.1 0.4 0 0.1-0.1 0.3 0 0.2-0.1 0.3-66.3 95-132.9 190-18.5 26.2-37.7 52.5-1 1.4 0.7 1.8c0.8 0.2 2-0.4 2.6-1.2q24.2-33.6 49.2-66.6 58.6-77.5 117.2-155 5.7-7.6 8.8-11.5 0.2-0.2 0.5 0z"/><path fill-rule="evenodd" class="a" d="m452.2 230.9q0.3 0.1 0.3-0.2c0.8-5 2-10.9 5-15.1q0.4-0.5-0.2-0.7-36.3-15.1-75.5-14.8c-73.1 0.5-138.1 44.8-165.9 112.2q0 0.1 0 0.1 0.1 0.1 0.1 0.1 0 0.1 0.1 0.1 0.1-0.1 0.1-0.1c2.2-2.9 4.5-4.8 7.7-7.6q10-8.7 22.3-14.2 0.2-0.1 0.4-0.4c28.8-43 75.6-70.4 126.9-73.6q40.3-2.4 78.7 14.2z"/><path fill-rule="evenodd" class="a" d="m558.7 422.8q0 0.1 0 0.1 0.1 0.1 0.1 0.1 0 0 0.1-0.1 0 0 0-0.1c9.1-40.3 6.1-83.5-12.2-121q-24.1-49.5-71.2-77.5-1.3-0.8-1.8 0.6-3.3 7-3.5 15 0 0.2 0 0.3 0.1 0.2 0.2 0.4 0.1 0.1 0.2 0.3 0.1 0.1 0.3 0.2c47.9 29.2 77.5 78.3 78.5 134.9 0 2.7-0.6 6.4 0 8.8q5.3 18 9.3 38z"/><path fill-rule="evenodd" class="a" d="m369.7 375.2c0-10.8-2.1-21.5-6.2-31.4-4.2-10-10.2-19-17.9-26.7-7.6-7.6-16.6-13.7-26.6-17.8-10-4.1-20.6-6.2-31.4-6.2-10.8 0-21.5 2.1-31.5 6.2-9.9 4.1-19 10.2-26.6 17.8-7.6 7.7-13.7 16.7-17.8 26.7-4.2 9.9-6.3 20.6-6.3 31.4 0 10.8 2.1 21.5 6.3 31.4 4.1 10 10.2 19.1 17.8 26.7 7.6 7.6 16.7 13.6 26.6 17.7 10 4.2 20.7 6.3 31.5 6.3 10.8 0 21.4-2.1 31.4-6.3 10-4.1 19-10.1 26.6-17.7 7.7-7.6 13.7-16.7 17.9-26.7 4.1-9.9 6.2-20.6 6.2-31.4z"/><path fill-rule="evenodd" class="a" d="m207.4 422c12.3 53.1 47.8 96.4 95.9 120.8q0.1 0 0.3 0 0.1 0.1 0.2 0 0.1 0 0.3-0.1 0.1-0.1 0.2-0.2l8-11.4q0.1 0 0.1-0.2 0 0 0-0.1 0-0.1-0.1-0.2 0-0.1-0.2-0.1-54.7-26.7-77.2-83.3-0.2-0.6-0.7-0.9-3.9-2.4-7.3-5.5-10.2-9.1-19.2-19-0.6-0.7-0.3 0.2z"/><path fill-rule="evenodd" class="a" d="m456.8 544.4q19.4-9 36.8-21.6 0 0 0 0 0-0.1 0-0.2 0 0-0.1 0 0 0-0.1 0-15.4 4-31.4 6-1.6 0.2-3.1 1c-40.7 21-89.7 22.3-132.3 7.2q-0.3-0.1-0.5 0.1l-7.7 12.1q0 0.1 0 0.1 0 0.1 0 0.2 0 0 0.1 0.1 0 0 0.1 0 70.3 26.1 138.2-5z"/><path fill-rule="evenodd" class="b" d="m262.1 618.3q-0.3-0.1-0.5-0.3-13.3-14.2-27-28c-2.7-2.7-5.7-5.4-9.6-5.3q-5.6 0.1-11-0.1-0.1 0-0.2 0.1-0.1 0.1-0.1 0.2-0.1 0.1 0 0.2 0 0.2 0.1 0.2c2.1 1.5 5.4 3 6.2 5.4q1 2.8 1 6.7-0.1 16.1-0.1 32.2c0 4.4-2.2 5.5-5.5 7.4q-0.2 0-0.3 0.2-0.1 0.2 0 0.4 0.1 0.2 0.2 0.2 0.2 0.2 0.4 0.2 4.7-0.5 9.7-0.7c3.5-0.2 6.6-1.8 6.6-5.6q0.1-14.4 0.1-28.6 0 0 0.1-0.1 0 0 0 0 0.1-0.1 0.2-0.1 0 0.1 0.1 0.1 13.1 13.5 26.1 26.8c3.1 3.2 5.5 7.4 10.5 7.6q5.7 0.3 11.3 0.2 0.2-0.1 0.2-0.1 0.2-0.1 0.2-0.2 0-0.1 0-0.1 0-0.2-0.2-0.2c-1.7-1.4-4.3-2.5-5.5-4.2q-1.5-2.3-1.5-5.1-0.2-12.4-0.2-35.2c0-4 2.9-5.7 6-7.1q0.1-0.1 0.2-0.2 0-0.1 0-0.2 0-0.2-0.2-0.2-0.1-0.2-0.2-0.2-4.8 0.1-9.8 0.1c-4.7 0.1-7.1 2.1-7.1 7.1q0.1 13.2 0 26.3 0 0.1 0 0.1 0 0.1-0.1 0.1 0 0 0 0-0.1 0-0.1 0z"/><path fill-rule="evenodd" class="b" d="m332.2 611q0.4-0.1 0.4 0.4 0.1 10 0 19.9 0 3.7 2.6 5.3c2.6 1.6 7.9 1.1 11.2 1q0.4 0 0.5-0.1 0.1-0.2 0.1-0.3 0-0.1 0-0.2 0-0.2-0.1-0.2-0.1-0.1-0.3-0.2c-4.1-1.6-4.4-4.6-4.3-8.9q0-9.2 0-18.3-0.1-0.8 0.7-1 4.8-1.8 7.1-6.1 0.2-0.3 0.2-0.6-0.1-0.5-0.3-0.1c-1.5 2.2-4.6 2.7-7.1 3q-0.6 0-0.6-0.6c0-3.7 0.9-7.6-3-9.7-2.5-1.4-7.8-0.8-10.8-0.8q-0.1 0-0.2 0-0.1 0-0.2 0.1 0 0 0 0.1-0.1 0.1-0.1 0.1 0.1 0.2 0.1 0.3 0.1 0.2 0.2 0.2c2.7 1.7 4.2 2.7 4.3 6.1q0.2 2.9 0 5.9 0 0.4-0.3 0.5-4.3 1.5-7 5.2-1.3 1.6 0.6 0.8 3-1.5 6.3-1.8z"/><path fill-rule="evenodd" class="b" d="m547.4 608.9c-6.6-7.7-18.4-6.4-25.9-1.3q-0.1 0.1-0.2 0.1-0.2 0.1-0.3 0-0.2-0.1-0.2-0.1-0.2-0.1-0.2-0.2c-0.9-1.9-2-3.3-4.3-3.6q-3.5-0.5-6.9-0.2-0.2 0-0.3 0.1-0.1 0.1-0.2 0.3 0 0.1 0.1 0.3 0.1 0.1 0.2 0.2c3.6 1.8 4 4.6 4 8.7q0.1 12 0.1 24 0 0.1 0 0.1 0 0.1 0 0.2 0.1 0 0.1 0 0.2 0.1 0.2 0.1h7q0.2 0 0.3-0.1 0.1 0 0.2-0.1 0.1-0.1 0.1-0.2 0.1-0.1 0.1-0.2-0.1-10 0-20.2c0-2.7 0.7-3.7 2.8-5.2 6.5-4.8 17.3-4.1 17.3 6.2q0 5.7 0 11.5c0.1 2.5 0.9 7.4 4.1 7.9q4.2 0.7 8.2 0.3 0.1 0 0.2-0.1 0.1-0.1 0.1-0.2 0.1-0.2 0-0.3-0.1-0.1-0.2-0.2c-3.8-2.2-3.6-4.7-3.7-8.8q0-6 0-12c0-2.1 0.3-2.8 1.8-4.1q5.2-4.9 11.4-3.4c3.7 0.9 6 3.4 6.2 7.1q0.1 3.5 0.1 13.8c0 3.5 1.1 7.1 5.2 7.7q3.5 0.4 7 0.3 0.2-0.1 0.3-0.2 0.1-0.1 0.2-0.3 0-0.1-0.1-0.3-0.1-0.2-0.2-0.3-3.6-1.9-3.7-6.2 0-6 0-12 0-4.1-0.5-5.8c-1.8-5.1-7-8.6-12.1-9.2-6.9-0.9-12.3 1.7-17.8 6q0 0-0.1 0-0.1 0.1-0.2 0.1 0-0.1-0.1-0.1-0.1 0-0.1-0.1z"/><path fill-rule="evenodd" class="b" d="m450.4 625.8q0 0-0.1 0 0-0.1 0-0.1 0 0-0.1 0 0 0 0 0-4.7-9.2-9-18.6c-1.5-3.1-4-3.9-7.3-4q-3.5-0.1-6.8 0-0.1 0.1-0.2 0.2-0.1 0-0.2 0.2 0 0.1 0 0.2 0.1 0.1 0.2 0.2c4.5 2.7 5.8 5.8 8.1 10.1q5.8 10.8 11.2 22 0 0 0 0.1 0 0.1 0.1 0.2 0 0.1-0.1 0.2 0 0.1 0 0.2-1.9 4.5-4.3 9.1c-0.9 1.7-3.7 1.1-5.1 0.7q-0.1 0-0.3 0-0.1 0.1-0.3 0.3 0 0.1 0 0.3 0 0.2 0.1 0.3c2.2 2.6 7.1 7.2 9.6 1.9q9.6-20.4 19-41 0.8-1.8 0.7-2.7c-0.2-3.6-7.7-2.5-9.7-1.9q-0.1 0-0.2 0.1-0.1 0.2-0.1 0.3 0 0.1 0.1 0.2 0 0.2 0.2 0.2l2.8 1.1q0.3 0.2 0.4 0.3 0.2 0.2 0.3 0.4 0 0.2 0 0.4 0 0.2 0 0.4-3.9 9.2-8.2 18.3-0.3 0.7-0.8 0.4z"/><path fill-rule="evenodd" class="b" d="m371 606.6c-1.3-1.1-2.4-2.7-4.3-2.8q-4.4-0.3-8.5-0.2-0.1 0-0.3 0.1-0.1 0.1-0.1 0.3-0.1 0.2 0 0.3 0.1 0.2 0.3 0.3c4.1 1.7 4.4 4.7 4.4 9q0 11.7 0 23.6 0 0.4 0.5 0.4h7.7q0.7 0 0.7-0.6 0-12.5-0.1-24 0-1.5 0.5-2.3c1.7-3.1 7.4-4.8 10.6-5.1q0.9 0 1.2-0.7 0-0.1 0-0.1 0-0.1 0-0.2-0.1 0-0.1-0.1-0.1 0-0.2 0-6.1-0.4-11.6 2.2-0.4 0.2-0.7-0.1z"/><path fill-rule="evenodd" class="b" d="m502.2 614.7c-1.3-12-14.7-10.9-23.7-11q-1.4-0.1-2.4 0.8 0 0 0 0.1-0.1 0.1 0 0.2 0 0.1 0.1 0.1 0 0.1 0.1 0.1c4.5 0 12.3 1.3 14.9 5.5q1.7 2.4 1.4 5.6-0.1 0.1-0.1 0.2-0.1 0.1-0.1 0.2-0.1 0-0.2 0.1-0.1 0-0.2 0.1c-6.8 0.3-23.8 3.6-25.8 11.6-1.5 6 5.2 9.2 10.1 9.4q8.8 0.1 15.9-4.9 0-0.1 0.2-0.1 0.1 0 0.2 0 0.1 0.1 0.2 0.1 0.1 0.2 0.1 0.3c2 5.6 8.5 4.7 13.2 4.4q0.1 0 0.3-0.1 0.1-0.1 0.1-0.2 0.1-0.2 0-0.4-0.1-0.1-0.3-0.2c-4.3-1.9-4-4.6-4.1-9.3q0-3.8 0-7.7 0-0.1 0-0.1 0.1-0.2 0.1-0.2 0-0.1 0.1-0.1 0.1-0.1 0.2-0.1c3.1-1.5 6.8-3.5 8.1-7q0-0.1 0.1-0.3 0.2-0.2 0.1-0.3-0.1-0.3-0.2 0c-1 2.6-5.5 3.2-8 3.5q-0.4 0-0.4-0.3z"/><path fill-rule="evenodd" class="b" d="m289.3 620.2q-3-0.3-4.9-2.4-0.1-0.1-0.1 0 0.1 0.2 0.1 0.3 0.2 0.1 0.2 0.3c0.7 2.8 2.7 3.9 4.8 5.6q0 0 0.1 0 0.1 0.1 0.1 0.2 0 0.1 0 0.1 0 0.1 0 0.2c0.1 2.2-0.2 4.5 0.9 6.5 3.1 5.6 7.6 6.5 14.1 6.6 6.1 0.1 10.8 0.4 15.5-3.1q0.1 0 0.2-0.2 0-0.1-0.1-0.2 0-0.1-0.1-0.2-0.2-0.1-0.3-0.1-0.3 0-0.8 0.3-8.8 4-16.8-0.3c-3.6-2-5.1-4.8-4.4-8.8q0-0.3 0.3-0.4c6.8-0.6 17.8-3.6 21.1-10.1 2.9-5.9-2.8-10-7.9-10.4q-6.3-0.3-11.1 2.3-5 2.7-8.9 5.4c-2.4 1.7-1.5 5.5-1.7 8.1q0 0.4-0.3 0.3z"/><path fill-rule="evenodd" class="b" d="m391.9 620.3q-2.7-0.5-4.7-2.2 0-0.1 0 0c0.7 3.1 2.7 4.1 4.9 5.8q0.2 0.2 0.2 0.6c0 1.8-0.1 3.9 0.5 5.5 3.1 8.5 12.3 7.7 19.4 7.6 4.5-0.1 7.3-0.6 10.7-3.1q0.1-0.1 0.1-0.3 0-0.1 0-0.3-0.1-0.1-0.3-0.2-0.2 0-0.3 0.1c-6.4 2.9-12.7 3.2-18.6-0.7-3-1.9-3.8-4.7-3.4-8.1q0-0.3 0.4-0.3c6.3-0.7 23-4.9 21.8-14.1-0.4-3.5-4-5.7-7.3-6.3-8.2-1.3-14.6 3-21.1 7.3-2.8 1.9-1.7 5.5-1.9 8.4q-0.1 0.3-0.4 0.3z"/><path fill-rule="evenodd" class="b" d="m581.8 655.5q-0.1-0.3-0.2-0.5-0.1-0.3-0.3-0.5-0.2-0.3-0.5-0.4-0.3-0.1-0.6-0.1h-365.2q-0.3 0-0.6 0.1-0.2 0.1-0.5 0.4-0.2 0.2-0.3 0.5-0.1 0.2-0.1 0.5v2.2q0 0.3 0.1 0.6 0.1 0.2 0.3 0.5 0.3 0.2 0.5 0.3 0.3 0.1 0.6 0.1h365.2q0.3 0 0.6-0.1 0.3-0.1 0.5-0.3 0.2-0.3 0.3-0.5 0.1-0.3 0.1-0.6z"/><path fill-rule="evenodd" class="b" d="m302.9 665.1q0-0.3-0.1-0.6-0.2-0.3-0.4-0.5-0.2-0.3-0.5-0.4-0.3-0.1-0.6-0.1-0.4 0-0.7 0.1-0.3 0.1-0.5 0.4-0.2 0.2-0.3 0.5-0.2 0.3-0.2 0.6 0 0.3 0.2 0.6 0.1 0.3 0.3 0.5 0.2 0.3 0.5 0.4 0.3 0.1 0.7 0.1 0.3 0 0.6-0.1 0.3-0.1 0.5-0.4 0.2-0.2 0.4-0.5 0.1-0.3 0.1-0.6z"/><path fill-rule="evenodd" class="b" d="m429.1 665.1q0-0.3-0.1-0.6-0.1-0.3-0.4-0.5-0.2-0.3-0.5-0.4-0.3-0.1-0.6-0.1-0.3 0-0.6 0.1-0.4 0.1-0.5 0.4-0.3 0.2-0.4 0.5-0.1 0.3-0.1 0.6 0 0.3 0.1 0.6 0.1 0.3 0.4 0.5 0.1 0.3 0.5 0.4 0.3 0.1 0.6 0.1 0.3 0 0.6-0.1 0.3-0.1 0.5-0.4 0.3-0.2 0.4-0.5 0.1-0.3 0.1-0.6z"/><path fill-rule="evenodd" class="b" d="m477.5 680.9l-1.7 1.1q-0.1 0.1-0.1 0.2-0.1 0.2 0 0.3 0 0.1 0.1 0.2 0.1 0.1 0.3 0.1l6-0.1q0.2 0 0.3-0.1 0.2-0.1 0.2-0.4 0-0.2-0.1-0.3-0.1-0.2-0.4-0.2c-1.2-0.1-1.7-1-1.7-2.2q0-7.7 0-15.5 0-0.1 0-0.3-0.1 0-0.2-0.1-0.1-0.1-0.1-0.1-0.2 0-0.2 0l-3.6 1q-0.2 0-0.3 0.2-0.1 0.2-0.2 0.3 0 0.2 0.1 0.4 0.1 0.1 0.3 0.3l1.3 0.5q0.1 0.1 0.1 0.2 0.1 0 0.1 0.1 0.1 0 0.1 0.1 0.1 0.1 0.1 0.2 0 6.1 0 12.1 0 1-0.2 1.8 0 0 0 0-0.1 0.1-0.1 0.1 0 0.1 0 0.1 0 0-0.1 0z"/><path fill-rule="evenodd" class="b" d="m377.5 681.2l-1.3 0.5q-0.2 0.2-0.2 0.3-0.1 0.2-0.1 0.4 0.1 0.1 0.2 0.3 0.2 0.1 0.4 0.1l5.4-0.1q0.3 0.1 0.4-0.1 0.2-0.1 0.2-0.4 0-0.2-0.1-0.4-0.1-0.2-0.4-0.2c-1.1-0.2-1.4-1.1-1.4-2.2q-0.1-7.7-0.1-15.5 0-0.1 0-0.2 0 0-0.1-0.1-0.1-0.1-0.2-0.1 0 0-0.1 0l-3.7 1q-0.2 0-0.3 0.2-0.1 0.2-0.1 0.3 0 0.2 0 0.4 0.2 0.1 0.3 0.2l1 0.5q0.2 0.1 0.3 0.1 0.1 0.1 0.1 0.2 0.1 0.1 0.1 0.2 0 0.1 0 0.3v13.6q0 0.2 0 0.2 0 0.1 0 0.2-0.1 0.1-0.1 0.1-0.1 0.1-0.2 0.2z"/><path fill-rule="evenodd" class="b" d="m252.4 669.2q0.9 4.7 1.3 9.5c0.1 1.6-0.3 2.8-2.1 2.9q-0.1 0-0.2 0.1-0.2 0.1-0.2 0.2-0.1 0.1-0.1 0.3 0 0.2 0.1 0.3 0.1 0 0.2 0.2 0.2 0 0.3 0 3.8 0.1 7.5 0 0 0 0.1 0 0.1 0 0.1-0.1 0.1-0.1 0.1-0.1 0.1-0.1 0-0.2l-0.1-0.3q0-0.1 0-0.1-0.1-0.1-0.1-0.1-0.1-0.1-0.1-0.1-0.1 0-0.1 0-1.8-0.4-2-2.2-0.7-5.1-1.5-10.2-0.2-1.9-0.1-3.3 0-0.1 0.1-0.2 0-0.1 0-0.1 0.1-0.1 0.1-0.2 0.1 0 0.2 0l1.5-0.6q0.2 0 0.2-0.2 0.1-0.2 0.1-0.4 0-0.2-0.2-0.3-0.1-0.1-0.3-0.1h-4.8q-0.3 0-0.3 0.3c-0.4 4.2-3.5 9.7-5.5 13.3q-0.3 0.5-0.5 0-3.4-6.5-5.7-13.3-0.1-0.4-0.5-0.4l-4.4 0.1q-0.2 0-0.4 0.1-0.2 0.2-0.2 0.4 0 0.2 0.2 0.4 0.1 0.2 0.3 0.2 2.5 0.4 2 3.1-0.8 4.1-1.5 8.1c-0.4 2.8-0.5 4.6-2.8 5.5q-0.2 0.1-0.4 0.3 0 0.2 0 0.4 0 0.1 0.2 0.3 0.2 0 0.3 0h5.9q0.2 0 0.4-0.2 0.2-0.1 0.2-0.3 0-0.3-0.2-0.5-0.1-0.2-0.4-0.2-2.1-0.1-2.2-2.3 0-2.6 1.7-9.8 0.1-0.6 0.3-0.1l6 13.1q0.1 0.1 0.2 0.2 0.1 0.1 0.3 0.1 0.2 0 0.3-0.1 0.1-0.1 0.2-0.2l6.1-13.2q0.3-0.7 0.4 0z"/><path fill-rule="evenodd" class="b" d="m444.4 671.4l0.1-7q0-0.2 0-0.3-0.1-0.1-0.2-0.2-0.1-0.1-0.3-0.2-0.1 0-0.2 0.1l-3.4 1q-0.2 0.1-0.4 0.2 0 0.2 0 0.4 0 0.1 0.1 0.3 0.2 0.2 0.4 0.2c0.9 0 1.4 0.7 1.5 1.7q0 6.3-0.1 12.8 0 0.2 0 0.4-0.2 0.2-0.4 0.4-0.1 0.2-0.3 0.2-0.2 0.1-0.5 0.1l-3.7-0.2q-0.2 0-0.5-0.1-0.2-0.1-0.3-0.3-0.2-0.2-0.3-0.4-0.1-0.2-0.1-0.5v-8.2q0-0.4 0.4-0.4h3q0.1 0 0.2-0.1 0 0 0.1-0.1 0 0 0-0.1 0-0.1 0-0.2v-0.2q-0.1-0.4-0.5-0.4l-2.7-0.1q-0.1 0-0.2 0-0.1 0-0.1-0.1-0.1-0.1-0.1-0.1 0-0.1 0-0.2l-0.2-2q0-0.2-0.1-0.4-0.1-0.1-0.3-0.2-0.2 0-0.3 0.1-0.2 0.1-0.3 0.2-1.2 2.1-3.3 3-0.2 0-0.4 0.2 0 0.2 0 0.4 0.1 0.2 0.3 0.3 0.2 0.1 0.4 0 1.3-0.4 1.3 1.2 0 3.6 0.2 7.1c0 3.8 2.5 3.3 5.3 3q1.2-0.2 2.5 0 2.5 0.2 5.2 0 0.2 0 0.3-0.2 0.1-0.1 0.1-0.3 0.1-0.2-0.1-0.3-0.1-0.2-0.3-0.2-1.7-0.4-1.7-2.2-0.1-2.8 0-5.6 0.1-0.4 0.3-0.5c1.7-1.5 5.4-2.5 5.4 1.1q0 4.6 0 6.1 0 0.1 0 0.1 0 0.1 0 0.2-0.1 0-0.1 0-0.1 0.1-0.1 0.1l-1.2 0.7q-0.1 0.1-0.2 0.3-0.1 0.2-0.1 0.4 0.1 0.1 0.3 0.3 0.1 0.1 0.3 0.1l5.3-0.1q0.3 0 0.4-0.1 0.2-0.1 0.2-0.4 0-0.2-0.1-0.3-0.2-0.2-0.4-0.2c-3.2-0.7-0.4-7.8-2.5-10.4-2-2.5-4.8-0.9-7.1 0.4q-0.5 0.2-0.5-0.3z"/><path fill-rule="evenodd" class="b" d="m369.6 678.8l-3-6.5q0-0.1 0-0.2 0-0.1 0-0.2 0.1 0 0.2-0.1 0-0.1 0.2-0.1l1.1-0.4q0.2-0.1 0.2-0.3v-0.3q0-0.5-0.4-0.5h-9.1q-0.1 0-0.2 0-0.1 0-0.1-0.1-0.1-0.1-0.2-0.2 0 0 0-0.2v-1.7q0-0.2-0.2-0.3-0.1-0.2-0.3-0.3-0.2 0-0.4 0.1-0.2 0-0.3 0.2-1 1.9-3.1 2.7-0.5 0.2-0.3 0.8 0.2 0.2 0.5 0.2 1.4-0.3 1.4 1.2c0 2.5-0.5 7.4 0.7 9.6q0 0.1 0.1 0.2 0.1 0 0.1 0.1 0.1 0 0.1 0 0.2 0.1 0.2 0.1 2.7 0.8 5.2-0.2 0.1-0.1 0.3-0.3 0.1-0.2 0-0.4 0-0.2-0.2-0.3-0.1-0.2-0.3-0.2-0.5 0-1.3 0.1-2.4 0.3-2.3-2 0.1-3.7 0.1-7.4 0-0.5 0.5-0.5h4.1q0.1 0 0.2 0 0 0.1 0.1 0.1 0.1 0 0.1 0.1 0.1 0.1 0.2 0.1 2.4 5 4.6 10c0.8 1.7 0.2 3-1.3 4q0 0-0.1 0.1-0.1 0-0.2 0 0 0-0.1 0-0.1 0-0.2-0.1l-1.4-0.7q-0.2-0.1-0.5-0.2-0.3 0-0.6 0.1-0.2 0.1-0.4 0.4-0.2 0.2-0.3 0.5c-0.2 0.9 0.5 1.5 1.3 1.8 3 0.9 4.5-1.7 5.3-4.1q2.2-5.7 4.6-11.4 0-0.1 0-0.1 0-0.1 0.1-0.1 0 0 0.1-0.1 0.1 0 0.1-0.1 0.8-0.2 1.1-0.8 0-0.1 0-0.2 0-0.2-0.1-0.2 0-0.1-0.2-0.2 0 0-0.1 0l-3.9-0.1q-0.2 0-0.4 0.2-0.2 0.1-0.2 0.3 0 0.3 0.1 0.4 0.1 0.2 0.4 0.3 1.5 0.3 1.1 1.8-0.6 3-2.3 5.6-0.2 0.5-0.4 0z"/><path fill-rule="evenodd" class="b" d="m277.4 671.9l-0.1-1.5q0 0 0-0.2-0.1 0-0.2-0.1 0-0.1-0.2-0.1 0 0-0.1 0l-3.6 1q-0.1 0-0.2 0.2-0.1 0.1-0.2 0.3 0 0.2 0.1 0.3 0.1 0.2 0.2 0.2l1.4 0.9q0.2 0.1 0.2 0.5v7.3q0 0.1-0.1 0.2 0 0.1 0 0.1 0 0.1-0.2 0.2 0 0-0.1 0l-1.3 0.5q-0.3 0.2-0.3 0.5l0.1 0.2q0.1 0.4 0.4 0.4l6.6-0.1q0.1 0 0.1 0 0.1 0 0.2-0.1 0-0.1 0-0.1 0-0.1 0-0.2l-0.2-0.5q0-0.1 0-0.1 0 0 0 0-0.1-0.1-0.1-0.1 0 0-0.1 0-0.9-0.1-1.8-0.4 0-0.1-0.1-0.1 0-0.1 0-0.1-0.1-0.1-0.2-0.1 0-0.1 0-0.2c-0.3-2.9-0.8-6.8 1.8-8.2q0.2-0.1 0.5 0.1l1.4 0.9q0.1 0.1 0.3 0.2 0.2 0 0.4 0 0.2-0.1 0.4-0.2 0.1-0.1 0.2-0.3 1.2-2.2-1.2-3c-1.8-0.5-2.6 0.8-3.6 1.8q-0.4 0.3-0.4-0.1z"/><path fill-rule="evenodd" class="b" d="m299.5 681.2l-1.1 0.4q-0.2 0.1-0.3 0.3-0.1 0.2 0 0.4 0 0.2 0.2 0.4 0.1 0.1 0.3 0.1l5.5-0.1q0.2 0 0.3-0.1 0.2-0.2 0.2-0.4 0-0.2-0.1-0.3-0.1-0.2-0.3-0.2-1.4-0.3-1.4-1.9-0.1-4.8-0.2-9.4 0-0.1 0-0.2-0.1-0.1-0.2-0.2 0 0-0.1-0.1-0.2 0-0.3 0l-3.3 1q-0.2 0-0.3 0.1-0.1 0.2-0.1 0.4-0.1 0.1 0 0.3 0.1 0.2 0.2 0.2l1.1 0.7q0 0 0.1 0.1 0.1 0 0.1 0.1 0 0.1 0.1 0.1 0 0.1 0 0.2v7.4q0 0.2-0.1 0.2 0 0.2 0 0.2-0.1 0.1-0.2 0.1 0 0.1-0.1 0.2z"/><path fill-rule="evenodd" class="b" d="m310.2 671.4l-0.4-1q-0.1-0.3-0.4-0.2l-3.5 0.8q-0.1 0.1-0.2 0.2-0.1 0.2-0.2 0.3 0 0.2 0.1 0.4 0 0.1 0.2 0.2l1.3 0.9q0.1 0 0.2 0 0 0.1 0.1 0.2 0 0 0 0.1 0 0.1 0 0.1 0.2 3.1 0 6.2c-0.1 1.1-0.3 1.9-1.5 2q-0.2 0-0.3 0.2-0.2 0.2-0.2 0.4 0 0.2 0.2 0.4 0.2 0.1 0.4 0.1l5.5 0.1q0.2 0 0.4-0.2 0.1-0.1 0.2-0.3 0-0.2-0.1-0.4-0.1-0.2-0.3-0.3l-1.2-0.5q-0.1 0-0.1-0.1-0.1 0-0.1-0.1-0.1 0-0.1-0.1 0-0.1 0-0.2l-0.1-6.6q0-0.3 0.3-0.6c1.7-1.9 5.2-2.4 5.4 1.3q0.1 2.9-0.1 5.8 0 0.4-0.4 0.6l-1.3 0.7q-0.1 0.1-0.2 0.2-0.1 0.2 0 0.4 0 0.1 0.1 0.3 0.2 0 0.4 0h5.9q0.1 0 0.2 0 0.2-0.2 0.2-0.3 0-0.1 0-0.2-0.1-0.2-0.2-0.2l-1.6-1q0 0-0.1 0-0.1-0.1-0.1-0.1 0 0 0-0.1 0-0.1 0-0.1c-0.2-2.7 0.3-6.7-0.7-8.7-1.4-3.1-4.8-2-7.2-0.5q-0.4 0.2-0.5-0.1z"/><path fill-rule="evenodd" class="b" d="m426 672.9q0.4 3.5 0.1 6.9c-0.1 1.1-0.5 1.7-1.6 1.9q-0.2 0-0.4 0.2-0.1 0.1-0.1 0.3 0 0.3 0.2 0.4 0.2 0.1 0.3 0.1h5.9q0.1 0 0.2 0 0.1-0.2 0.2-0.3 0-0.1 0-0.3-0.1-0.1-0.2-0.2l-1.4-0.9q-0.3-0.2-0.3-0.6v-9.9q0-0.1-0.1-0.3-0.1-0.1-0.2-0.2-0.1 0-0.2-0.1-0.2 0-0.3 0.1l-3.5 0.9q-0.1 0.1-0.1 0.1-0.1 0.1-0.1 0.2 0 0 0 0.1 0 0.1 0 0.2 0.4 0.7 1.3 1 0 0 0.1 0 0.1 0 0.1 0.1 0.1 0.1 0.1 0.2 0 0.1 0 0.1z"/><path fill-rule="evenodd" class="b" d="m507.2 672.6l1.8 0.1q0.1 0 0.1 0 0.1 0 0.1-0.1 0.1 0 0.2-0.1 0 0 0-0.1l0.2-1.2q0.1-0.5-0.4-0.5-2.6-0.2-5.4-0.5c-2.5-0.3-4.6-0.2-6 1.8-1.2 1.8-1 4.2 0.8 5.5q0.1 0 0.1 0.2 0.2 0.2 0.2 0.3 0 0.2-0.2 0.3 0 0.2-0.1 0.2-2.5 1.7-0.7 3.9 0 0.1 0 0.1 0 0.1 0 0.2 0 0.1 0 0.2 0 0-0.1 0.1c-2.4 1.5-1.7 3.7 0.9 4.4q3.8 1 7.5-0.5c2.1-0.9 3.6-3.5 1.6-5.4-1.6-1.5-5.6-0.8-7.7-1.3-0.2 0-0.4-0.2-0.5-0.3-0.2-0.2-0.2-0.4-0.2-0.7q0-0.3 0.3-0.5 0.3-0.2 0.7-0.2c3.7 0.1 7.5-0.8 6.6-5.6q-0.1-0.4 0.2-0.3z"/><path fill-rule="evenodd" class="b" d="m520.4 679.9q-0.1-3.2 0-6.4c0.1-5.8-12-4-9.1 1.4q0 0.1 0.1 0.1 0 0.1 0.1 0.1 0.1 0.1 0.2 0.1 0 0 0.1 0l1.5-0.6q0.5-0.1 0.3-0.6l-0.2-1.6q-0.1-0.5 0.2-0.7c2.6-1.5 4.8 0.5 4 3.2q-0.1 0.3-0.4 0.4c-1.9 0.6-4.5 1.1-5.9 2.5-2.1 2-0.7 4.9 2.1 5.2q2 0.1 3.9-1.6 0.3-0.3 0.5 0 1.6 2.9 4.1 0.5 0.2-0.2 0.3-0.4 0-0.3-0.1-0.5 0-0.2-0.2-0.4-0.1-0.2-0.4-0.2l-0.7-0.2q-0.3 0-0.4-0.3z"/><path fill-rule="evenodd" class="b" d="m527.9 671.4l-0.2-0.9q-0.1-0.4-0.5-0.3l-3.3 0.8q-0.2 0-0.3 0.2-0.2 0.2-0.2 0.3 0 0.3 0 0.5 0.2 0.2 0.4 0.3l1.1 0.6q0.4 0.2 0.4 0.6l-0.1 7q0 0.1 0 0.2 0 0-0.1 0.1 0 0.1 0 0.1-0.1 0-0.2 0l-1.5 0.9q-0.1 0.1-0.2 0.2-0.1 0.2 0 0.4 0.1 0.1 0.2 0.3 0.1 0 0.3 0h5.8q0.2 0 0.3-0.1 0.1-0.1 0.2-0.2 0-0.2-0.1-0.4 0-0.1-0.2-0.2l-1.4-0.7q-0.1 0-0.2-0.1 0 0 0-0.1-0.1-0.1-0.2-0.2 0 0 0-0.2v-6.5q0 0 0-0.1 0-0.1 0-0.2 0 0 0.1-0.1 0.1-0.1 0.1-0.1c1.7-2 5.6-2.5 5.5 1.3 0 2 0.1 3.9-0.2 5.9q0 0 0 0.2 0 0-0.1 0.1 0 0 0 0-0.1 0.1-0.2 0.2l-1.2 0.6q-0.1 0.1-0.3 0.2 0 0.2 0 0.4 0 0.1 0.2 0.3 0.1 0 0.3 0h5.6q0.2 0 0.3 0 0.2-0.2 0.2-0.3 0.1-0.2 0-0.4-0.1-0.1-0.3-0.2l-1.3-0.8q-0.3-0.1-0.3-0.3c0-2.7 0.4-6.6-0.5-8.6-1.5-3.2-4.9-2.1-7.3-0.5q-0.1 0-0.2 0 0 0.1-0.1 0-0.1 0-0.2-0.1 0 0-0.1-0.1z"/><path fill-rule="evenodd" class="b" d="m547.8 680.3c-5 1.5-7.8-6.1-4.1-8.5 2-1.4 3.5-0.4 4.6 1.6q0.4 0.8 1.2 0.6 0.3 0 0.5-0.2 0.2-0.1 0.3-0.4 0.2-0.2 0.3-0.4 0-0.3 0-0.5c-0.2-1-0.8-1.6-1.8-2-10-3.2-12.7 10.8-4.4 12.4q3.4 0.6 6.2-2.7 0.1-0.2 0.1-0.3 0-0.2-0.1-0.4-0.1-0.1-0.3-0.2-0.2-0.1-0.4-0.1c-0.7 0.2-1.5 0.8-2.1 1.1z"/><path fill-rule="evenodd" class="b" d="m555.3 675.3l7.4-0.1q0.2 0 0.4 0 0.1-0.1 0.2-0.2 0.2-0.1 0.2-0.3 0-0.2 0-0.3c-0.4-4.2-5.9-5.7-8.8-3.1-5.8 5-0.3 15.7 7.7 10.1q1-0.7 0.9-1.8 0-0.1-0.1-0.1-0.1-0.1-0.1-0.1-0.1 0-0.1 0-0.1 0-0.2 0-4.6 2.7-7.4-1.4-0.6-0.9-0.5-2.5 0.1-0.2 0.4-0.2z"/><path fill-rule="evenodd" class="b" d="m263.6 675.3l7.5-0.1q0.2 0 0.3 0 0.2-0.1 0.3-0.3 0.2-0.1 0.2-0.3 0-0.2 0-0.4c-1-4-5.5-5.5-8.7-3.1-3.3 2.4-3.5 8-0.2 10.6q4.1 3.2 8.6-1.2 0.1-0.1 0.1-0.3 0-0.3-0.1-0.5-0.1-0.2-0.3-0.2-0.2-0.1-0.4 0c-0.9 0.4-1.8 1-2.8 0.9q-4.6 0-5-4.7 0 0 0.1-0.2 0 0 0-0.1 0.1 0 0.2-0.1 0.1 0 0.2 0z"/><path fill-rule="evenodd" class="b" d="m295 672.6l1.6 0.1q0 0.1 0.2 0 0 0 0.1 0 0.1-0.1 0.1-0.2 0.1-0.1 0.1-0.1v-1.2q0.1-0.5-0.5-0.6-3.2-0.1-6.3-0.4c-4.7-0.5-7.7 4.3-3.8 7.5q0.1 0 0.1 0 0 0.1 0 0.2 0 0.1 0 0.1 0 0.1-0.1 0.2c-1.1 1.2-2.6 2.3-1 4.1q0 0.1 0.1 0.1 0 0.1 0 0.1 0 0.1 0 0.2 0 0-0.1 0.1c-1.1 1.4-2.7 3.3 0 4.3q4.6 1.7 8.9-0.6c3.2-1.6 2.7-5.3-1.1-5.8q-2.4-0.3-4.9-0.2 0 0-0.1 0 0 0-0.1-0.1-0.1 0-0.1 0-0.1 0-0.2 0-1.3-0.9-0.2-1.6c1-0.8 3.6-0.1 5.1-1q2.5-1.6 1.8-4.8 0-0.5 0.4-0.4z"/><path fill-rule="evenodd" class="b" d="m331.9 672.6l1.7 0.1q0.1 0.1 0.2 0 0.1 0 0.2 0 0-0.1 0.1-0.2 0-0.1 0-0.1v-1.4q0-0.1 0-0.1-0.1-0.1-0.1-0.2 0 0-0.1 0-0.1 0-0.2-0.1-2.5 0-6-0.5c-4.5-0.7-8.5 4.1-4.3 7.6q0.1 0 0.1 0.1 0 0.1 0 0.1 0 0.1 0 0.2 0 0.1 0 0.1l-1.5 1.6q-0.1 0.1-0.1 0.1-0.1 0.1-0.1 0.1 0 0.2 0 0.2 0 0.1 0 0.2-0.1 1 0.6 1.8 0.1 0 0.1 0.2 0.1 0 0.1 0.1 0 0-0.1 0.1 0 0.1 0 0.1c-0.9 1.2-2.1 2-1.2 3.5 1.3 2.3 7.3 1.5 9.3 0.8 4-1.6 3.9-5.9-0.8-6.4q-2.1-0.2-4.6-0.1-0.1 0-0.2 0-0.2 0-0.2-0.1-0.2 0-0.2-0.1-0.1-0.1-0.1-0.2-0.7-1.1 0.5-1.5 0.3-0.2 1-0.1c3.5 0.2 6.5-1.6 5.6-5.5q-0.1-0.1 0-0.1 0-0.2 0-0.2 0 0 0.1-0.1 0.1 0 0.2 0z"/><path fill-rule="evenodd" class="b" d="m345.5 672.1c1.6-2.1 4-0.2 4.4 1.8q0.1 0.1 0.2 0.2 0.1 0.1 0.2 0.1 0.2 0 0.3 0 0.2-0.1 0.2-0.3c1.5-3.5-2.5-4.2-4.9-3.7-2.4 0.5-3.9 3.2-2.3 5.2 1.3 1.5 3.6 2.3 5.3 3.2 2.1 1.1-0.3 4.2-2.8 2.8-1-0.6-1.3-1.8-1.8-2.8q0-0.2-0.2-0.3-0.2-0.1-0.4-0.1-0.2 0.1-0.3 0.2-0.1 0.2-0.1 0.4v2.7q0 0.3 0.2 0.5c2.7 1.4 8.3 1.5 8.4-2.5 0.2-4.8-6-3.5-6.6-6.8q0-0.3 0.2-0.6z"/><path fill-rule="evenodd" class="b" d="m386.6 675.3l7.5-0.1q0.2 0 0.4-0.1 0.3-0.1 0.4-0.3 0.1-0.2 0.1-0.4 0.1-0.3 0-0.5-1.4-3.1-4.1-3.7c-8.3-1.8-9.9 12.1-1.7 12.8 1.7 0.1 5.1-1 5.5-3.2q0-0.1-0.1-0.3-0.1 0-0.2-0.1-0.1-0.1-0.2-0.1-0.2 0-0.2 0.1c-3.3 2.3-8 0.5-7.7-3.9q0-0.2 0.3-0.2z"/><path fill-rule="evenodd" class="b" d="m467.4 675.3l6.7-0.1q0.2 0 0.4 0 0.2-0.1 0.3-0.2 0.1-0.2 0.2-0.4 0.1-0.2 0-0.4c-0.4-3.2-3.4-4.6-6.4-4-5.4 1-6.4 9.2-1.7 12q4.2 2.4 7.8-1.8 0.2-0.2 0.2-0.4 0-0.2-0.2-0.3 0-0.2-0.2-0.2-0.2-0.1-0.4 0-5.6 2.9-7.7-2.9-0.5-1.3 1-1.3z"/><path fill-rule="evenodd" class="b" d="m487.1 675.3l7.3-0.1q0.1 0 0.2 0 0 0 0.1-0.1 0-0.1 0-0.1 0-0.1 0-0.1-0.3-4-4-4.7c-6.7-1.3-9.5 7.7-4.8 11.6 2.7 2.2 7 1.3 8.6-1.8q0.1-0.1 0.1-0.3 0-0.1-0.2-0.2 0-0.1-0.2-0.1-0.1 0-0.3 0-5.5 3.1-7.8-2.6-0.6-1.5 1-1.5z"/><path fill-rule="evenodd" class="b" d="m417.4 678.4l-2.2-5.5q-0.1-0.3 0-0.5 0-0.2 0.1-0.5 0.1-0.2 0.3-0.3 0.2-0.1 0.4-0.2 0.6-0.1 0.7-0.6 0-0.1 0-0.2 0-0.1-0.1-0.2-0.1 0-0.1-0.1-0.2-0.1-0.2-0.1h-5.2q-0.2 0.1-0.4 0.2-0.1 0.1-0.2 0.3 0 0.3 0.1 0.4 0.1 0.2 0.3 0.3c3.4 1.2 0.6 5.5-0.2 7.5q-0.1 0-0.2 0.1 0 0-0.2 0 0 0-0.1 0-0.1-0.1-0.2-0.1l-2.5-6.6q0-0.1 0-0.1 0-0.1 0-0.2 0 0 0.1-0.1 0.1 0 0.1 0 0.8-0.4 1-1.2 0 0 0-0.1 0-0.1 0-0.2-0.1 0-0.2-0.1-0.1-0.1-0.2-0.1h-4.5q-0.1 0-0.2 0.1-0.1 0.1-0.1 0.1-0.1 0.1-0.1 0.2 0 0.1 0.1 0.2c0.5 1 1.2 1.6 1.7 2.6q1.7 4.5 3.7 9.5 0.1 0.1 0.3 0.3 0.1 0.1 0.3 0.1 0.3 0 0.4-0.1 0.2-0.2 0.3-0.3l3-7q0-0.1 0-0.1 0.1-0.1 0.1-0.1 0.1 0 0.2 0.1 0 0 0.1 0.1l2.8 7q0.1 0.1 0.3 0.3 0.1 0 0.3 0 0.2 0 0.4 0 0.1-0.2 0.2-0.3l4-10.3q0.1-0.3 0.4-0.6l1.2-1.1q0.1 0 0.2-0.2 0-0.1 0-0.2-0.1-0.1-0.2-0.2-0.1-0.1-0.2-0.1h-3.8q-0.2 0.1-0.3 0.1 0 0.1-0.1 0.2-0.1 0-0.1 0.2 0 0.1 0 0.2 0.3 0.5 0.9 0.6 0.2 0.1 0.4 0.2 0.2 0.2 0.2 0.3 0.2 0.2 0.2 0.4 0 0.3-0.1 0.5l-2.1 5.5q-0.4 1-0.8 0z"/><path fill-rule="evenodd" class="a" d="m365 375.2c0-10.2-2-20.2-5.9-29.7-3.9-9.4-9.6-17.9-16.8-25.1-7.2-7.2-15.7-12.9-25.1-16.8-9.4-3.8-19.4-5.8-29.6-5.8-10.2 0-20.3 2-29.7 5.8-9.3 3.9-17.9 9.6-25.1 16.8-7.2 7.2-12.9 15.7-16.8 25.1-3.9 9.5-5.9 19.5-5.9 29.7 0 10.1 2 20.2 5.9 29.6 3.9 9.4 9.6 18 16.8 25.2 7.2 7.2 15.8 12.9 25.1 16.7 9.4 4 19.5 6 29.7 6 10.2 0 20.2-2 29.6-6 9.4-3.8 17.9-9.5 25.1-16.7 7.2-7.2 12.9-15.8 16.8-25.2 3.9-9.4 5.9-19.5 5.9-29.6z"/><path fill-rule="evenodd" class="a" d="m354.5 375.2c0-8.8-1.7-17.6-5-25.7-3.4-8-8.4-15.5-14.5-21.7-6.3-6.2-13.7-11.2-21.8-14.5-8.1-3.4-16.8-5.1-25.6-5.1-8.8 0-17.5 1.7-25.7 5.1-8.1 3.3-15.5 8.3-21.7 14.5-6.2 6.2-11.1 13.7-14.5 21.7-3.4 8.1-5.1 16.9-5.1 25.7 0 8.8 1.7 17.5 5.1 25.6 3.4 8.1 8.3 15.5 14.5 21.7 6.2 6.3 13.6 11.2 21.7 14.5 8.2 3.4 16.9 5.2 25.7 5.2 8.8 0 17.5-1.8 25.6-5.2 8.1-3.3 15.5-8.2 21.8-14.5 6.1-6.2 11.1-13.6 14.5-21.7 3.3-8.1 5-16.8 5-25.6z"/><path fill-rule="evenodd" class="a" d="m283.5 360.2c0-1.4-0.2-2.9-0.8-4.2-0.6-1.4-1.4-2.6-2.4-3.6-1-1.1-2.3-1.9-3.6-2.4-1.4-0.6-2.8-0.9-4.3-0.9-1.5 0-2.9 0.3-4.2 0.9q-2.1 0.8-3.6 2.4c-1 1-1.9 2.2-2.4 3.6-0.6 1.3-0.9 2.8-0.9 4.2 0 1.5 0.3 2.9 0.9 4.3 0.5 1.3 1.4 2.6 2.4 3.6q1.5 1.6 3.6 2.4c1.3 0.6 2.7 0.8 4.2 0.8 1.5 0 2.9-0.2 4.3-0.8 1.3-0.5 2.6-1.4 3.6-2.4 1-1 1.8-2.3 2.4-3.6 0.6-1.4 0.8-2.8 0.8-4.3z"/><path fill-rule="evenodd" class="a" d="m315 360.3c-0.1-1.5-0.3-2.9-0.9-4.3-0.5-1.3-1.3-2.5-2.4-3.5-1-1.1-2.3-1.9-3.6-2.5-1.3-0.5-2.8-0.8-4.2-0.8-1.5 0-3 0.3-4.3 0.8-1.3 0.6-2.6 1.4-3.6 2.5-1.1 1-1.9 2.2-2.4 3.5q-0.9 2.1-0.8 4.3c0 1.5 0.2 2.9 0.8 4.3 0.5 1.3 1.3 2.5 2.4 3.5 1 1.1 2.3 1.9 3.6 2.5 1.3 0.5 2.8 0.8 4.3 0.8 1.4 0 2.9-0.3 4.2-0.8 1.3-0.6 2.6-1.4 3.6-2.5 1.1-1 1.9-2.2 2.4-3.5 0.6-1.4 0.8-2.8 0.9-4.3z"/><path fill-rule="evenodd" class="a" d="m283.5 391.2c0-1.5-0.2-3-0.8-4.3q-0.9-2-2.4-3.6c-1-1-2.3-1.9-3.6-2.4-1.4-0.6-2.8-0.9-4.3-0.9-1.5 0-2.9 0.3-4.2 0.9-1.4 0.5-2.6 1.4-3.6 2.4q-1.6 1.6-2.5 3.6c-0.5 1.3-0.8 2.8-0.8 4.3 0 1.4 0.3 2.8 0.8 4.2 0.6 1.3 1.4 2.6 2.5 3.6 1 1 2.2 1.8 3.6 2.4 1.3 0.6 2.7 0.8 4.2 0.8 1.5 0 2.9-0.2 4.3-0.8 1.3-0.6 2.6-1.4 3.6-2.4 1-1 1.8-2.3 2.4-3.6 0.6-1.4 0.8-2.8 0.8-4.2z"/><path fill-rule="evenodd" class="a" d="m314.9 391.1c0-1.5-0.2-2.9-0.8-4.3-0.5-1.3-1.3-2.6-2.4-3.6-1-1-2.3-1.9-3.6-2.4-1.3-0.6-2.8-0.8-4.2-0.8-1.5 0-3 0.2-4.3 0.8q-2 0.8-3.6 2.4c-1 1-1.9 2.3-2.4 3.6-0.5 1.4-0.8 2.8-0.8 4.3 0 1.4 0.3 2.9 0.8 4.2 0.5 1.4 1.4 2.6 2.4 3.6q1.6 1.6 3.6 2.4c1.3 0.6 2.8 0.9 4.3 0.9 1.4 0 2.9-0.3 4.2-0.9 1.3-0.5 2.6-1.3 3.6-2.4 1.1-1 1.9-2.2 2.4-3.6 0.6-1.3 0.8-2.8 0.8-4.2z"/><path fill-rule="evenodd" class="b" d="m478.8 631.8c3.8 3.5 10.4-0.6 14.3-3.1q0 0 0.1 0 0-0.1 0-0.2 0.1-0.1 0.1-0.2 0 0 0-0.1l0.1-7.5q0-0.4-0.5-0.4-4.8 0.7-10 2.4c-3.6 1.1-8.2 5.5-4.1 9.1z"/><path fill-rule="evenodd" class="b" d="m310.3 612.2c-2.4-6.2-9-2.9-12.4-0.1q-0.3 0.2-0.3 0.7l0.1 7.4q0 0.1 0 0.2 0.1 0.1 0.1 0.1 0.1 0.1 0.2 0.1 0.1 0.1 0.2 0c4.4-0.8 10.2-1.8 12-7q0.3-0.7 0.1-1.4z"/><path fill-rule="evenodd" class="b" d="m412.7 611.8c-2.1-5.9-9-2-12.1 0.2q-0.1 0.1-0.1 0.1-0.1 0.1-0.1 0.2-0.1 0-0.1 0.2 0 0 0 0.1v7.6q0 0.1 0 0.1 0.1 0.1 0.2 0.2 0 0 0.1 0 0.1 0 0.1 0c3.7-0.4 8.6-1.5 11.1-4.6q1.7-2 0.9-4.1z"/><path fill-rule="evenodd" class="b" d="m502.6 677.4q0.5-0.2 0.8-0.4 0.5-0.3 0.7-0.8 0.3-0.5 0.4-1.1 0.1-0.6 0-1.2-0.1-0.6-0.3-1.2-0.3-0.5-0.7-0.8-0.4-0.4-0.9-0.6-0.5-0.2-1-0.1-0.4 0.1-0.9 0.4-0.3 0.3-0.6 0.8-0.3 0.5-0.4 1-0.1 0.6 0 1.2 0.1 0.6 0.4 1.2 0.2 0.5 0.6 0.9 0.4 0.3 0.9 0.5 0.5 0.2 1 0.2z"/><path fill-rule="evenodd" class="b" d="m506.9 684.5q0-0.4-0.3-0.7-0.4-0.3-1-0.6-0.6-0.2-1.4-0.3-0.8-0.2-1.7-0.1-0.8 0-1.6 0.2-0.8 0.2-1.4 0.4-0.6 0.3-0.9 0.7-0.4 0.3-0.4 0.7 0 0.4 0.4 0.7 0.3 0.4 1 0.6 0.6 0.2 1.4 0.3 0.8 0.1 1.6 0.1 0.9 0 1.7-0.2 0.8-0.2 1.4-0.4 0.6-0.4 0.9-0.7 0.3-0.3 0.3-0.7z"/><path fill-rule="evenodd" class="b" d="m517.1 680.3q0.1 0 0.2-0.1 0.1 0 0.1-0.1 0.1-0.1 0.2-0.2 0-0.1 0-0.2l0.2-2.4q0-0.2-0.1-0.4-0.1-0.2-0.3-0.2-0.1-0.2-0.3-0.2-0.2 0-0.3 0.1l-3.4 1.6q-0.1 0.1-0.1 0.2-0.1 0.1-0.2 0.2 0 0.1 0 0.3 0 0.1 0 0.3l0.6 1.4q0.1 0.1 0.1 0.3 0.1 0.1 0.3 0.1 0 0 0.2 0.1 0.1 0 0.3-0.1z"/><path fill-rule="evenodd" class="b" d="m559.7 674q0.2 0 0.4-0.2 0.3-0.1 0.3-0.4 0.1-0.2 0-0.4 0-0.3-0.2-0.5l-1.6-1.2q0-0.1-0.1-0.1-0.1-0.1-0.2-0.1-0.1 0-0.2 0-0.1 0-0.2 0l-1.5 0.4q0 0-0.1 0.1 0 0-0.1 0.1-0.1 0-0.1 0 0 0-0.1 0.1l-0.7 0.9q-0.2 0.2-0.2 0.4 0 0.2 0.1 0.4 0.1 0.2 0.2 0.4 0.3 0.1 0.5 0.1z"/><path fill-rule="evenodd" class="b" d="m263.5 674l5.1-0.1q0 0 0 0 0 0 0.1 0 0 0 0-0.1v-0.1q0-0.5-0.2-0.9-0.3-0.4-0.6-0.8-0.3-0.4-0.8-0.5-0.5-0.2-1-0.2h-0.2q-0.5 0-1 0.2-0.4 0.2-0.8 0.5-0.4 0.4-0.5 0.9-0.2 0.5-0.2 1 0 0 0 0 0 0 0.1 0.1z"/><path fill-rule="evenodd" class="b" d="m290.2 677.4q0.5-0.1 0.9-0.4 0.4-0.3 0.7-0.8 0.3-0.4 0.4-1 0.1-0.6 0-1.2-0.1-0.6-0.3-1.2-0.3-0.6-0.7-0.9-0.4-0.4-0.8-0.6-0.5-0.2-1-0.1-0.5 0-0.8 0.3-0.5 0.3-0.7 0.8-0.3 0.5-0.5 1.1 0 0.6 0 1.1 0.1 0.7 0.4 1.2 0.2 0.6 0.6 1 0.4 0.3 0.9 0.5 0.5 0.2 0.9 0.2z"/><path fill-rule="evenodd" class="b" d="m294.7 684.5q0-0.4-0.4-0.7-0.3-0.3-0.9-0.6-0.6-0.2-1.5-0.3-0.8-0.2-1.6-0.1-0.9 0-1.7 0.2-0.8 0.2-1.5 0.4-0.5 0.3-0.8 0.7-0.4 0.3-0.4 0.7 0 0.4 0.4 0.7 0.3 0.4 1 0.5 0.6 0.3 1.4 0.4 0.8 0.1 1.7 0.1 0.9 0 1.7-0.2 0.8-0.2 1.3-0.4 0.7-0.4 1-0.7 0.3-0.3 0.3-0.7z"/><path fill-rule="evenodd" class="b" d="m327.2 677.4q0.5-0.1 0.9-0.4 0.4-0.3 0.7-0.8 0.2-0.5 0.3-1.1 0.2-0.6 0-1.2 0-0.6-0.3-1.1-0.3-0.6-0.7-0.9-0.3-0.4-0.8-0.6-0.5-0.2-1-0.1-0.5 0.1-0.8 0.3-0.5 0.4-0.7 0.9-0.3 0.5-0.4 1-0.1 0.6 0 1.2 0.1 0.6 0.4 1.2 0.2 0.5 0.6 0.9 0.4 0.4 0.9 0.5 0.5 0.2 0.9 0.2z"/><path fill-rule="evenodd" class="b" d="m331.6 684.5q0-0.4-0.4-0.8-0.3-0.3-0.9-0.5-0.7-0.2-1.5-0.3-0.8-0.2-1.7-0.1-0.8 0-1.6 0.2-0.8 0.2-1.4 0.5-0.6 0.2-0.9 0.6-0.3 0.4-0.3 0.8 0.1 0.3 0.4 0.6 0.3 0.4 1 0.6 0.6 0.3 1.3 0.3 0.9 0.1 1.7 0.1 0.9 0 1.7-0.2 0.8-0.2 1.4-0.4 0.6-0.4 0.9-0.7 0.3-0.3 0.3-0.7z"/><path fill-rule="evenodd" class="b" d="m387.8 671.5q-0.1 0-0.1 0.1-0.1 0-0.2 0.1 0 0-0.1 0 0 0.1-0.1 0.2l-0.6 0.9q-0.2 0.1-0.2 0.4 0 0.2 0.1 0.3 0.1 0.2 0.3 0.4 0.1 0.1 0.4 0.1h3.9q0.1 0 0.3-0.1 0.2-0.2 0.3-0.4 0.1-0.2 0-0.5 0-0.2-0.1-0.3l-1.6-1.4q-0.1-0.1-0.1-0.1-0.2 0-0.2-0.1-0.1 0-0.2 0-0.1 0-0.2 0.1z"/><path fill-rule="evenodd" class="b" d="m466.7 673.9h5.1q0 0 0.1 0 0 0 0 0 0 0 0-0.1 0-0.5-0.2-1-0.1-0.4-0.5-0.8-0.4-0.4-0.8-0.6-0.5-0.2-1-0.2h-0.2q-0.5 0-1 0.2-0.5 0.2-0.8 0.6-0.3 0.4-0.5 0.8-0.2 0.5-0.2 1 0 0.1 0 0.1 0 0 0 0 0 0 0 0z"/><path fill-rule="evenodd" class="b" d="m486.4 674h5q0 0 0.1 0 0 0 0.1-0.1 0 0 0 0v-0.2q0-0.5-0.2-0.9-0.2-0.4-0.5-0.8-0.4-0.4-0.9-0.6-0.4-0.2-0.9-0.2h-0.3q-0.5 0-0.9 0.2-0.5 0.2-0.8 0.6-0.4 0.3-0.6 0.8-0.2 0.4-0.2 0.9v0.1q0 0.1 0 0.1 0 0 0.1 0 0 0.1 0 0.1 0 0 0 0z"/><path fill-rule="evenodd" class="c" d="m751 400c0 46.9-9.3 93.3-27.2 136.6-17.9 43.4-44.2 82.7-77.4 115.9-33.1 33.1-72.4 59.4-115.8 77.3-43.3 17.9-89.7 27.2-136.6 27.2-46.9 0-93.3-9.3-136.6-27.2-43.3-17.9-82.7-44.2-115.8-77.3-33.2-33.2-59.5-72.5-77.4-115.9-17.9-43.3-27.2-89.7-27.2-136.6 0-46.9 9.3-93.3 27.2-136.6 17.9-43.3 44.2-82.7 77.4-115.8 33.1-33.1 72.5-59.5 115.8-77.4 43.3-17.9 89.7-27.2 136.6-27.2 46.9 0 93.3 9.3 136.6 27.2 43.4 17.9 82.7 44.3 115.8 77.4 33.2 33.1 59.5 72.5 77.4 115.8 17.9 43.3 27.2 89.7 27.2 136.6zm-7.8 0c0-45.9-9-91.3-26.6-133.7-17.5-42.4-43.2-80.8-75.7-113.3-32.4-32.4-70.9-58.1-113.3-75.7-42.4-17.5-87.7-26.5-133.6-26.5-45.9 0-91.3 9-133.7 26.5-42.4 17.6-80.8 43.3-113.3 75.7-32.4 32.5-58.2 70.9-75.7 113.3-17.5 42.4-26.6 87.8-26.6 133.7 0 45.9 9.1 91.2 26.6 133.6 17.5 42.4 43.3 80.9 75.7 113.3 32.5 32.5 70.9 58.2 113.3 75.7 42.4 17.6 87.8 26.6 133.7 26.6 45.9 0 91.2-9 133.6-26.6 42.4-17.5 80.9-43.2 113.3-75.7 32.5-32.4 58.2-70.9 75.7-113.3 17.6-42.4 26.6-87.7 26.6-133.6z"/><path class="c" d="m486.4 314.9q-3.1 3.9-8.8 11.5-58.6 77.5-117.2 155-25 33-49.2 66.6c-0.6 0.8-1.8 1.4-2.6 1.1q-1.7-0.3-0.7-1.7 19.2-26.3 37.7-52.5 66.6-95 132.9-190 0.1-0.1 0.1-0.3 0.1-0.2 0.1-0.3 0-0.2-0.1-0.4 0-0.1-0.2-0.3-5.5-6.8-10.3-14.4c-8.1-12.7-11.1-29.5-10.7-44.5 0.3-9.3 2.1-20 6.7-28 4-7 10-12.5 16.5-17.4q0.3-0.3 0.6-0.2l3.4 0.4q0 0 0.1 0 0 0 0 0.1 0.1 0 0.2 0.1 0 0 0 0 0.3 0.8-0.3 1.2c-13.4 8.4-21 22.8-22.7 38.2-2.4 22.6 4.2 44 19.6 60.7q0.1 0 0.1 0.1 0.1 0 0.2 0 0.1 0 0.2-0.1 0.1 0 0.1-0.1 4.2-6.4 8.8-12.6 0.6-0.8 2-1.3c2.8-1 5.9 0.1 7.9 2.3 3 3.5 1.3 6.3-0.9 9.6-2.9 4.3-6.5 8.4-9.8 12.4q0 0-0.1 0.1 0 0.1 0 0.1 0 0.1 0 0.1 0.1 0.1 0.1 0.2 20.8 24.3 38.2 51.2 4.8 7.3 6.6 10.5 12.4 21.4 14.9 46.2 2.8 28.1-11 52.4c-3.5 6.2-8.5 13.7-13.2 19.1-8.3 9.5-18.7 17.9-30.2 23.2-13.2 6.1-29.3 10.4-44.2 10q-0.2 0-0.3-0.3-0.5-1.1-1.7-1.3-0.4-0.2-0.4-0.5v-1.6q0-0.4 0.4-0.4c18.9-0.5 37-4.4 52.9-14.5 8.5-5.5 17.2-12.6 22.8-20.7q2.9-4.2 5.7-8.4c20.7-30 17.8-69.4 0.7-100.2-12.4-22-27.6-41.7-44.4-60.4q-0.3-0.2-0.5 0z"/><path class="c" d="m452.2 230.9q-38.4-16.6-78.7-14.2c-51.3 3.2-98.1 30.7-126.9 73.6q-0.2 0.3-0.4 0.4-12.3 5.5-22.3 14.2c-3.2 2.8-5.5 4.7-7.7 7.6q0 0-0.1 0.1-0.1 0-0.1-0.1 0 0-0.1-0.1 0 0 0.1-0.1c27.7-67.4 92.7-111.7 165.8-112.2q39.2-0.3 75.5 14.8 0.6 0.2 0.2 0.7c-3 4.2-4.2 10.1-5 15.1q0 0.3-0.3 0.2z"/><path class="c" d="m558.7 422.8q-4-20-9.3-38c-0.6-2.4 0-6.1 0-8.8-1-56.6-30.6-105.7-78.5-134.9q-0.2-0.1-0.3-0.2-0.1-0.2-0.2-0.3-0.1-0.2-0.2-0.4 0-0.1 0-0.3 0.2-8 3.5-15 0.5-1.4 1.8-0.6 47.1 28 71.2 77.5c18.3 37.5 21.3 80.7 12.2 121q0 0.1 0 0.1-0.1 0.1-0.1 0.1 0 0-0.1-0.1 0 0 0-0.1z"/><path fill-rule="evenodd" class="c" d="m369.7 375.2c0 10.8-2.1 21.5-6.2 31.4-4.2 10-10.2 19.1-17.9 26.7-7.6 7.6-16.6 13.6-26.6 17.7-10 4.2-20.6 6.3-31.4 6.3-10.8 0-21.5-2.1-31.5-6.3-9.9-4.1-19-10.1-26.6-17.7-7.6-7.6-13.7-16.7-17.8-26.7-4.2-9.9-6.3-20.6-6.3-31.4 0-10.8 2.1-21.5 6.3-31.4 4.1-10 10.2-19 17.8-26.7 7.6-7.6 16.7-13.7 26.6-17.8 10-4.1 20.7-6.2 31.5-6.2 10.8 0 21.4 2.1 31.4 6.2 10 4.1 19 10.2 26.6 17.8 7.7 7.7 13.7 16.7 17.9 26.7 4.1 9.9 6.2 20.6 6.2 31.4zm-4.7 0c0-10.2-2-20.2-5.9-29.7-3.9-9.4-9.6-17.9-16.8-25.1-7.2-7.2-15.7-12.9-25.1-16.8-9.4-3.8-19.4-5.8-29.6-5.8-10.2 0-20.3 2-29.7 5.8-9.3 3.9-17.9 9.6-25.1 16.8-7.2 7.2-12.9 15.7-16.8 25.1-3.9 9.5-5.9 19.5-5.9 29.7 0 10.1 2 20.2 5.9 29.6 3.9 9.4 9.6 18 16.8 25.2 7.2 7.2 15.8 12.9 25.1 16.7 9.4 4 19.5 6 29.7 6 10.2 0 20.2-2 29.6-6 9.4-3.8 17.9-9.5 25.1-16.7 7.2-7.2 12.9-15.8 16.8-25.2 3.9-9.4 5.9-19.5 5.9-29.6z"/><path fill-rule="evenodd" class="d" d="m365 375.2c0 10.1-2 20.2-5.9 29.6-3.9 9.4-9.6 18-16.8 25.2-7.2 7.2-15.7 12.9-25.1 16.7-9.4 4-19.4 6-29.6 6-10.2 0-20.3-2-29.7-6-9.3-3.8-17.9-9.5-25.1-16.7-7.2-7.2-12.9-15.8-16.8-25.2-3.9-9.4-5.9-19.5-5.9-29.6 0-10.2 2-20.2 5.9-29.7 3.9-9.4 9.6-17.9 16.8-25.1 7.2-7.2 15.8-12.9 25.1-16.8 9.4-3.8 19.5-5.8 29.7-5.8 10.2 0 20.2 2 29.6 5.8 9.4 3.9 17.9 9.6 25.1 16.8 7.2 7.2 12.9 15.7 16.8 25.1 3.9 9.5 5.9 19.5 5.9 29.7zm-10.5 0c0-8.8-1.7-17.6-5-25.7-3.4-8-8.4-15.5-14.5-21.7-6.3-6.2-13.7-11.2-21.8-14.5-8.1-3.4-16.8-5.1-25.6-5.1-8.8 0-17.5 1.7-25.7 5.1-8.1 3.3-15.5 8.3-21.7 14.5-6.2 6.2-11.1 13.7-14.5 21.7-3.4 8.1-5.1 16.9-5.1 25.7 0 8.8 1.7 17.5 5.1 25.6 3.4 8.1 8.3 15.5 14.5 21.7 6.2 6.3 13.6 11.2 21.7 14.5 8.2 3.4 16.9 5.2 25.7 5.2 8.8 0 17.5-1.8 25.6-5.2 8.1-3.3 15.5-8.2 21.8-14.5 6.1-6.2 11.1-13.6 14.5-21.7 3.3-8.1 5-16.8 5-25.6z"/><path fill-rule="evenodd" class="c" d="m354.5 375.2c0 8.8-1.7 17.5-5 25.6-3.4 8.1-8.4 15.5-14.5 21.7-6.3 6.3-13.7 11.2-21.8 14.5-8.1 3.4-16.8 5.2-25.6 5.2-8.8 0-17.5-1.8-25.7-5.2-8.1-3.3-15.5-8.2-21.7-14.5-6.2-6.2-11.1-13.6-14.5-21.7-3.4-8.1-5.1-16.8-5.1-25.7 0-8.7 1.7-17.5 5.1-25.6 3.4-8 8.3-15.5 14.5-21.7 6.2-6.2 13.6-11.2 21.7-14.5 8.2-3.4 16.9-5.1 25.7-5.1 8.8 0 17.5 1.7 25.6 5.1 8.1 3.3 15.5 8.3 21.8 14.5 6.1 6.2 11.1 13.7 14.5 21.7 3.3 8.1 5 16.9 5 25.7zm-71-15c0-1.4-0.2-2.9-0.8-4.2-0.6-1.4-1.4-2.6-2.4-3.6-1-1.1-2.3-1.9-3.6-2.4-1.4-0.6-2.8-0.9-4.3-0.9-1.5 0-2.9 0.3-4.2 0.9q-2.1 0.8-3.6 2.4c-1 1-1.9 2.2-2.4 3.6-0.6 1.3-0.9 2.8-0.9 4.2 0 1.5 0.3 2.9 0.9 4.3 0.5 1.3 1.4 2.6 2.4 3.6q1.5 1.6 3.6 2.4c1.3 0.6 2.7 0.8 4.2 0.8 1.5 0 2.9-0.2 4.3-0.8 1.3-0.5 2.6-1.4 3.6-2.4 1-1 1.8-2.3 2.4-3.6 0.6-1.4 0.8-2.8 0.8-4.3zm31.4 0.1q0.1-2.2-0.8-4.3c-0.5-1.3-1.3-2.5-2.4-3.5-1-1.1-2.3-1.9-3.6-2.5-1.3-0.5-2.8-0.8-4.2-0.8-1.5 0-3 0.3-4.3 0.8-1.3 0.6-2.6 1.4-3.6 2.5-1.1 1-1.9 2.2-2.4 3.5q-0.9 2.1-0.8 4.3c0 1.5 0.2 2.9 0.8 4.3 0.5 1.3 1.3 2.5 2.4 3.5 1 1.1 2.3 1.9 3.6 2.5 1.3 0.5 2.8 0.8 4.3 0.8 1.4 0 2.9-0.3 4.2-0.8 1.3-0.6 2.6-1.4 3.6-2.5 1.1-1 1.9-2.2 2.4-3.5 0.6-1.4 0.8-2.8 0.8-4.3zm-31.4 30.9c0-1.5-0.2-3-0.8-4.3q-0.9-2-2.4-3.6c-1-1-2.3-1.9-3.6-2.4-1.4-0.6-2.8-0.9-4.3-0.9-1.5 0-2.9 0.3-4.2 0.9-1.4 0.5-2.6 1.4-3.6 2.4q-1.6 1.6-2.5 3.6c-0.5 1.3-0.8 2.8-0.8 4.3 0 1.4 0.3 2.8 0.8 4.2 0.6 1.3 1.4 2.6 2.5 3.6 1 1 2.2 1.8 3.6 2.4 1.3 0.6 2.7 0.8 4.2 0.8 1.5 0 2.9-0.2 4.3-0.8 1.3-0.6 2.6-1.4 3.6-2.4 1-1 1.8-2.3 2.4-3.6 0.6-1.4 0.8-2.8 0.8-4.2zm31.4-0.1c0-1.5-0.2-2.9-0.8-4.3-0.5-1.3-1.3-2.6-2.4-3.6-1-1-2.3-1.9-3.6-2.4-1.3-0.6-2.8-0.8-4.2-0.8-1.5 0-3 0.2-4.3 0.8q-2 0.8-3.6 2.4c-1 1-1.9 2.3-2.4 3.6-0.5 1.4-0.8 2.8-0.8 4.3 0 1.4 0.3 2.9 0.8 4.2 0.5 1.4 1.4 2.6 2.4 3.6q1.6 1.6 3.6 2.4c1.3 0.6 2.8 0.9 4.3 0.9 1.4 0 2.9-0.3 4.2-0.9 1.3-0.5 2.6-1.3 3.6-2.4 1.1-1 1.9-2.2 2.4-3.6 0.6-1.3 0.8-2.8 0.8-4.2z"/><path class="d" d="m272.4 371.3c-6.1 0-11.1-4.9-11.1-11.1 0-6.1 5-11.1 11.1-11.1 6.1 0 11.1 5 11.1 11.1 0 6.2-5 11.1-11.1 11.1z"/><path class="d" d="m303.9 371.4c-6.2 0-11.1-5-11.1-11.1 0-6.1 4.9-11.1 11.1-11.1 6.1 0 11.1 5 11.1 11.1 0 6.1-5 11.1-11.1 11.1z"/><path class="d" d="m272.4 402.2c-6.1 0-11.1-4.9-11.1-11.1 0-6.1 5-11.1 11.1-11.1 6.1 0 11.1 5 11.1 11.1 0 6.2-5 11.1-11.1 11.1z"/><path class="d" d="m303.9 402.2c-6.2 0-11.1-5-11.1-11.1 0-6.2 4.9-11.1 11.1-11.1 6.1 0 11 4.9 11 11.1 0 6.1-4.9 11.1-11 11.1z"/><path class="c" d="m303.3 542.8c-48.1-24.4-83.6-67.7-95.9-120.8q-0.3-0.9 0.3-0.2 9 9.9 19.2 19 3.4 3.1 7.3 5.5 0.5 0.3 0.7 0.9 22.5 56.6 77.2 83.3 0.2 0 0.2 0.1 0.1 0.1 0.1 0.2 0 0.1 0 0.1 0 0.2-0.1 0.2l-8 11.4q-0.1 0.1-0.2 0.2-0.2 0.1-0.3 0.1-0.1 0.1-0.2 0-0.2 0-0.3 0z"/><path class="c" d="m456.8 544.4q-67.9 31.1-138.2 5-0.1 0-0.1 0-0.1-0.1-0.1-0.1 0-0.1 0-0.2 0 0 0-0.1l7.7-12.1q0.2-0.2 0.5-0.1c42.6 15.1 91.6 13.8 132.3-7.2q1.5-0.8 3.1-1 16-2 31.4-6 0.1 0 0.1 0 0.1 0 0.1 0 0 0.1 0 0.2 0 0 0 0-17.4 12.6-36.8 21.6z"/><path fill-rule="evenodd" d="m262.1 618.3q0 0 0.1 0 0 0 0 0 0.1 0 0.1-0.1 0 0 0 0 0.1-13.2 0-26.4c0-5 2.4-7 7.1-7.1q5 0 9.8-0.1 0.1 0 0.2 0.2 0.2 0 0.2 0.2 0 0.1 0 0.2-0.1 0.1-0.2 0.2c-3.1 1.4-6 3.1-6 7.1q0 22.8 0.2 35.2 0 2.8 1.5 5.1c1.2 1.7 3.8 2.8 5.5 4.2q0.2 0 0.2 0.2 0 0 0 0.1 0 0.1-0.2 0.2 0 0-0.2 0.1-5.6 0.1-11.3-0.2c-5-0.2-7.4-4.4-10.5-7.6q-13-13.3-26.1-26.8-0.1 0-0.1-0.1-0.1 0-0.2 0.1 0 0 0 0-0.1 0.1-0.1 0.1 0 14.2-0.1 28.6c0 3.8-3.1 5.4-6.6 5.6q-5 0.2-9.7 0.7-0.2 0-0.4-0.2-0.1 0-0.2-0.2-0.1-0.2 0-0.4 0.1-0.2 0.3-0.2c3.3-1.9 5.5-3 5.5-7.4q0-16.1 0.1-32.2 0-3.9-1-6.7c-0.8-2.4-4.1-3.9-6.2-5.4q-0.1 0-0.1-0.2-0.1-0.1 0-0.2 0-0.1 0.1-0.2 0.1-0.1 0.2-0.1 5.4 0.2 11 0.1c3.9-0.1 6.9 2.6 9.6 5.3q13.7 13.8 27 28 0.2 0.2 0.5 0.3zm70.1-7.3q-3.3 0.3-6.3 1.8-1.9 0.8-0.6-0.8 2.7-3.7 7-5.2 0.3-0.1 0.3-0.5 0.2-3 0-5.9c-0.1-3.4-1.6-4.4-4.3-6.1q-0.1 0-0.2-0.2 0-0.1 0-0.3-0.1 0 0-0.1 0-0.1 0-0.1 0.1-0.1 0.2-0.1 0.1 0 0.2 0c3 0 8.3-0.6 10.8 0.8 3.9 2.1 3 6 3 9.7q0 0.6 0.6 0.6c2.5-0.3 5.6-0.8 7.1-3q0.2-0.4 0.3 0.1 0 0.3-0.2 0.6-2.3 4.3-7.1 6.1-0.8 0.2-0.7 1 0 9.1 0 18.3c-0.1 4.3 0.2 7.3 4.3 8.9q0.2 0.1 0.3 0.2 0.1 0 0.1 0.2 0 0.1 0 0.2 0 0.1-0.1 0.3-0.1 0.1-0.4 0.1c-3.4 0.1-8.7 0.6-11.3-1q-2.6-1.6-2.6-5.3 0.1-9.9 0-19.9 0-0.5-0.4-0.4zm215.7-2c5.5-4.3 10.9-6.9 17.8-6 5.1 0.6 10.3 4.1 12.1 9.2q0.5 1.7 0.5 5.8 0 6 0 12 0.1 4.3 3.7 6.2 0.1 0.1 0.2 0.3 0.1 0.2 0.1 0.3-0.1 0.2-0.2 0.3-0.1 0.1-0.3 0.2-3.5 0.1-7-0.4c-4.1-0.5-5.2-4.1-5.2-7.6q0-10.3-0.1-13.8c-0.2-3.7-2.5-6.2-6.2-7.1q-6.2-1.5-11.4 3.4c-1.5 1.3-1.8 2-1.8 4.1q0 6 0 12c0.1 4.1-0.1 6.6 3.7 8.8q0.1 0.1 0.2 0.2 0.1 0.1 0 0.3 0 0.1-0.1 0.2-0.1 0.1-0.2 0.1-4 0.4-8.2-0.3c-3.2-0.5-4-5.4-4.1-7.9q0-5.8 0-11.5c0-10.3-10.8-11-17.3-6.2-2.1 1.5-2.8 2.5-2.8 5.2q-0.1 10.2 0 20.2 0 0.1-0.1 0.2 0 0.1-0.1 0.2-0.1 0.1-0.2 0.1-0.1 0.1-0.3 0.1h-7q0 0-0.2-0.1 0 0-0.1 0 0-0.1 0-0.2 0 0 0-0.1 0-12-0.1-24c0-4.1-0.4-6.9-4-8.7q-0.1-0.1-0.2-0.2-0.1-0.2-0.1-0.3 0.1-0.2 0.2-0.3 0.1-0.1 0.3-0.1 3.4-0.3 6.9 0.2c2.3 0.3 3.4 1.7 4.3 3.6q0 0.1 0.2 0.2 0 0 0.2 0.1 0.1 0.1 0.3 0 0.1 0 0.2-0.1c7.5-5.1 19.3-6.4 25.9 1.3q0 0.1 0.1 0.1 0.1 0 0.1 0.1 0.1 0 0.2-0.1 0.1 0 0.1 0zm-97.5 16.8q0.5 0.3 0.8-0.4 4.3-9.1 8.2-18.3 0-0.2 0-0.4 0-0.2 0-0.4-0.1-0.2-0.3-0.4-0.1-0.1-0.4-0.3l-2.8-1.1q-0.2 0-0.2-0.2-0.1-0.1-0.1-0.2 0-0.1 0.1-0.3 0.1-0.1 0.2-0.1c2-0.6 9.5-1.7 9.7 1.9q0.1 0.9-0.7 2.7-9.4 20.6-19 41c-2.5 5.3-7.4 0.7-9.6-1.9q-0.1-0.1-0.1-0.3 0-0.2 0-0.3 0.2-0.2 0.3-0.3 0.2 0 0.3 0c1.4 0.4 4.2 1 5.1-0.7q2.4-4.6 4.3-9.1 0-0.1 0-0.2 0.1-0.1 0.1-0.2-0.1-0.1-0.1-0.2 0-0.1 0-0.1-5.4-11.2-11.2-22c-2.3-4.3-3.6-7.4-8.1-10.1q-0.1-0.1-0.2-0.2 0-0.1 0-0.2 0.1-0.2 0.2-0.2 0.1-0.1 0.2-0.2 3.3-0.1 6.8 0c3.3 0.1 5.8 0.9 7.3 4q4.3 9.4 9 18.6 0 0 0 0 0.1 0 0.1 0 0 0 0 0.1 0.1 0 0.1 0zm-78.7-19.1q5.5-2.6 11.6-2.2 0.1 0 0.2 0 0 0.1 0.1 0.1 0 0.1 0 0.2 0 0 0 0.1-0.3 0.7-1.2 0.7c-3.2 0.3-8.9 2-10.6 5.1q-0.5 0.8-0.5 2.3 0.1 11.5 0.1 24 0 0.6-0.7 0.6h-7.7q-0.5 0-0.5-0.4 0-11.9 0-23.6c0-4.3-0.3-7.3-4.4-9q-0.2-0.1-0.3-0.3-0.1-0.1 0-0.3 0-0.2 0.1-0.3 0.2-0.1 0.3-0.1 4.1-0.1 8.5 0.2c1.9 0.1 3 1.7 4.3 2.8q0.3 0.3 0.7 0.1zm130.9 8.3c2.5-0.3 7-0.9 8-3.5q0.1-0.3 0.2 0 0.1 0.1-0.1 0.3-0.1 0.2-0.1 0.3c-1.3 3.5-5 5.5-8.1 7q-0.1 0-0.2 0.1-0.1 0-0.1 0.1 0 0-0.1 0.2 0 0 0 0.1 0 3.9 0 7.7c0.1 4.7-0.2 7.4 4.1 9.3q0.2 0.1 0.3 0.2 0.1 0.2 0 0.4 0 0.1-0.1 0.2-0.2 0.1-0.3 0.1c-4.7 0.3-11.2 1.2-13.2-4.4q0-0.1-0.1-0.3-0.1 0-0.2-0.1-0.1 0-0.2 0-0.2 0-0.2 0.1-7.1 5-15.9 4.9c-4.9-0.2-11.6-3.4-10.1-9.4 2-8 19-11.3 25.8-11.6q0.1-0.1 0.2-0.1 0.1-0.1 0.2-0.1 0-0.1 0.1-0.2 0-0.1 0.1-0.2 0.3-3.2-1.4-5.6c-2.6-4.2-10.4-5.5-14.9-5.5q-0.1 0-0.1-0.1-0.1 0-0.1-0.1-0.1-0.1 0-0.2 0-0.1 0-0.1 1-0.9 2.4-0.8c9 0.1 22.4-1 23.7 11q0 0.3 0.4 0.3zm-23.8 16.8c3.8 3.5 10.4-0.6 14.3-3.1q0 0 0.1 0 0-0.1 0-0.2 0.1-0.1 0.1-0.2 0 0 0.1-0.1v-7.5q0-0.4-0.5-0.4-4.8 0.7-10 2.4c-3.6 1.1-8.2 5.5-4.1 9.1zm-189.2-11.8c0.2-2.7-0.7-6.5 1.7-8.2q3.9-2.7 8.9-5.4 4.8-2.6 11.1-2.3c5.1 0.4 10.8 4.5 7.9 10.4-3.3 6.5-14.3 9.5-21.1 10.1q-0.3 0.1-0.3 0.4c-0.7 4 0.8 6.8 4.4 8.8q8 4.3 16.8 0.3 0.5-0.3 0.8-0.3 0.1 0 0.3 0.1 0.1 0.1 0.1 0.2 0.1 0.1 0.1 0.2-0.1 0.2-0.2 0.2c-4.7 3.5-9.4 3.2-15.5 3.2-6.5-0.2-11-1.1-14.1-6.7-1.1-2-0.8-4.3-0.9-6.5q0-0.1 0-0.2 0 0 0-0.1 0-0.1-0.1-0.2-0.1 0-0.1 0c-2.1-1.7-4.1-2.8-4.8-5.6q0-0.1-0.2-0.3 0-0.1-0.1-0.3 0-0.1 0.1 0 1.9 2.1 4.9 2.4 0.3 0.1 0.3-0.2zm20.7-7.8c-2.4-6.2-9-2.9-12.4-0.1q-0.3 0.2-0.3 0.7l0.1 7.4q0 0.1 0 0.2 0.1 0.1 0.1 0.1 0.1 0.1 0.2 0.1 0.1 0.1 0.2 0c4.4-0.8 10.2-1.8 12-7q0.3-0.7 0.1-1.4zm82 7.8c0.2-2.9-0.9-6.5 1.9-8.4 6.5-4.3 12.9-8.6 21.1-7.3 3.3 0.6 6.9 2.8 7.3 6.3 1.2 9.2-15.5 13.4-21.8 14.1q-0.4 0-0.4 0.3c-0.4 3.4 0.4 6.2 3.4 8.1 5.9 3.9 12.2 3.6 18.6 0.7q0.1-0.1 0.3-0.1 0.2 0.1 0.3 0.2 0 0.2 0 0.3 0 0.2-0.1 0.3c-3.4 2.5-6.2 3-10.7 3.1-7.1 0.1-16.3 0.9-19.4-7.6-0.6-1.6-0.5-3.7-0.5-5.5q0-0.4-0.2-0.6c-2.2-1.7-4.2-2.7-4.9-5.8q0-0.1 0 0 2 1.7 4.7 2.2 0.3 0 0.4-0.3zm20.4-8.2c-2.1-5.9-9-2-12.1 0.2q-0.1 0.1-0.1 0.1-0.1 0.1-0.1 0.2-0.1 0-0.1 0.2 0 0 0 0.1c0 0 0 7.7 0 7.7q0.1 0.1 0.2 0.2 0 0 0.1 0 0.1 0 0.1 0c3.7-0.4 8.6-1.5 11.1-4.6q1.7-2 0.9-4.1z"/><path  d="m213.5 656.5c0-1.4 1.1-2.5 2.5-2.5h363.3c1.3 0 2.5 1.1 2.5 2.5v0.2c0 1.4-1.2 2.5-2.5 2.5h-363.3c-1.4 0-2.5-1.1-2.5-2.5z"/><path  d="m301.3 666.7c-0.9 0-1.7-0.7-1.7-1.6 0-0.9 0.8-1.6 1.7-1.6 0.9 0 1.6 0.7 1.6 1.6 0 0.9-0.7 1.6-1.6 1.6z"/><path  d="m427.5 666.7c-0.9 0-1.6-0.7-1.6-1.6 0-0.9 0.7-1.6 1.6-1.6 0.9 0 1.6 0.7 1.6 1.6 0 0.9-0.7 1.6-1.6 1.6z"/><path  d="m477.7 680.7q0.2-0.8 0.2-1.8 0-6 0-12.1 0-0.1-0.1-0.2 0-0.1-0.1-0.1 0-0.1-0.1-0.1 0-0.1-0.1-0.2l-1.3-0.5q-0.2-0.2-0.3-0.3-0.1-0.2-0.1-0.4 0.1-0.1 0.2-0.3 0.1-0.2 0.3-0.2l3.6-1q0 0 0.2 0 0 0 0.1 0.1 0.1 0.1 0.2 0.1 0 0.2 0 0.3 0 7.8 0 15.5c0 1.2 0.5 2.1 1.7 2.2q0.3 0 0.4 0.2 0.1 0.1 0.1 0.3 0 0.3-0.2 0.4-0.1 0.1-0.3 0.1l-6 0.1q-0.2 0-0.3-0.1-0.1-0.1-0.1-0.2-0.1-0.1 0-0.3 0-0.1 0.1-0.2l1.7-1.1q0.1 0 0.1 0 0 0 0-0.1 0 0 0.1-0.1 0 0 0 0z"/><path  d="m377.8 680.5v-13.6q0-0.2 0-0.3 0-0.1-0.1-0.2 0-0.1-0.1-0.2-0.1 0-0.3-0.1l-1-0.5q-0.1-0.1-0.3-0.2 0-0.2 0-0.4 0-0.1 0.1-0.3 0.1-0.2 0.3-0.2l3.7-1q0.1 0 0.1 0 0.1 0 0.2 0.1 0.1 0.1 0.1 0.1 0 0.1 0 0.2 0 7.8 0.1 15.5c0 1.1 0.3 2 1.4 2.2q0.3 0 0.4 0.2 0.1 0.2 0.1 0.4 0 0.3-0.2 0.4-0.1 0.2-0.4 0.1l-5.5 0.1q-0.1 0-0.3-0.1-0.1-0.2-0.2-0.3 0-0.2 0.1-0.4 0-0.1 0.2-0.3l1.3-0.5q0.1-0.1 0.2-0.2 0 0 0.1-0.1 0-0.1 0-0.2 0 0 0-0.2z"/><path  d="m252 669.2l-6.1 13.2q-0.1 0.1-0.2 0.2-0.1 0.1-0.3 0.1-0.2 0-0.3-0.1-0.1-0.1-0.2-0.2l-6-13.1q-0.2-0.5-0.3 0.1-1.7 7.2-1.7 9.8 0.1 2.2 2.2 2.3 0.3 0 0.4 0.2 0.2 0.2 0.2 0.5 0 0.2-0.2 0.3-0.2 0.2-0.4 0.2h-5.9q-0.1 0-0.3 0-0.2-0.2-0.2-0.3 0-0.2 0-0.4 0.2-0.2 0.4-0.3c2.3-0.9 2.4-2.7 2.8-5.5q0.7-4 1.5-8.1 0.5-2.7-2-3.1-0.2 0-0.3-0.2-0.2-0.2-0.2-0.4 0-0.2 0.2-0.4 0.2-0.1 0.4-0.1l4.4-0.1q0.4 0 0.5 0.4 2.3 6.8 5.7 13.3 0.2 0.5 0.5 0c2-3.6 5.1-9.1 5.5-13.3q0-0.3 0.3-0.3h4.8q0.2 0 0.3 0.1 0.2 0.1 0.2 0.3 0 0.2-0.1 0.4 0 0.2-0.2 0.2l-1.5 0.6q-0.1 0-0.2 0 0 0.1-0.1 0.2 0 0 0 0.1-0.1 0.1-0.1 0.2-0.1 1.4 0.1 3.4 0.8 5 1.5 10.1 0.2 1.8 2 2.2 0 0 0.1 0 0 0 0.1 0.1 0 0 0.1 0.1 0 0 0 0.1l0.1 0.3q0.1 0.1 0 0.2 0 0-0.1 0.1 0 0.1-0.1 0.1-0.1 0-0.1 0-3.7 0.1-7.5 0-0.1 0-0.3 0-0.1-0.2-0.2-0.2-0.1-0.1-0.1-0.3 0-0.2 0.1-0.3 0-0.1 0.2-0.2 0.1-0.1 0.2-0.1c1.8-0.1 2.2-1.3 2.1-2.9q-0.4-4.8-1.3-9.5-0.1-0.7-0.4 0z"/><path  d="m444.9 671.7c2.3-1.3 5.1-3 7.1-0.4 2.1 2.6-0.7 9.7 2.5 10.4q0.2 0 0.4 0.2 0.1 0.1 0.1 0.3 0 0.3-0.2 0.4-0.1 0.1-0.4 0.1l-5.3 0.1q-0.2 0-0.3-0.1-0.2-0.2-0.3-0.3 0-0.2 0.1-0.4 0.1-0.2 0.2-0.3l1.2-0.7q0 0 0.1-0.1 0 0 0.1 0 0-0.1 0-0.2 0 0 0-0.1 0-1.5 0-6.1c0-3.6-3.7-2.6-5.4-1.1q-0.2 0.1-0.3 0.5-0.1 2.8 0 5.6 0 1.8 1.7 2.2 0.2 0 0.3 0.2 0.2 0.1 0.1 0.3 0 0.2-0.1 0.3-0.1 0.2-0.3 0.2-2.7 0.2-5.2-0.1-1.3-0.1-2.5 0.1c-2.8 0.3-5.3 0.8-5.3-3q-0.2-3.5-0.2-7.1 0-1.6-1.3-1.2-0.2 0.1-0.4 0-0.2-0.1-0.3-0.3 0-0.2 0-0.4 0.2-0.2 0.4-0.2 2.1-0.9 3.3-3 0.1-0.1 0.3-0.2 0.1-0.1 0.3-0.1 0.2 0.1 0.3 0.2 0.1 0.2 0.1 0.4l0.2 2q0 0.1 0 0.2 0 0 0.1 0.1 0 0.1 0.1 0.1 0.1 0 0.2 0l2.7 0.1q0.4 0 0.5 0.4v0.2q0 0.1 0 0.2 0 0.1 0 0.1-0.1 0.1-0.1 0.1-0.1 0.1-0.2 0.1h-3q-0.4 0-0.4 0.4v8.2q0 0.3 0.1 0.5 0.1 0.2 0.3 0.4 0.1 0.2 0.3 0.3 0.3 0.1 0.5 0.1l3.7 0.2q0.3 0 0.5-0.1 0.2 0 0.3-0.2 0.2-0.2 0.4-0.4 0-0.2 0-0.4 0.1-6.5 0.1-12.8c0-1-0.6-1.7-1.5-1.7q-0.2 0-0.4-0.2-0.1-0.2-0.1-0.3 0-0.2 0-0.4 0.2-0.1 0.4-0.2l3.4-1q0.1-0.1 0.2-0.1 0.2 0.1 0.3 0.2 0.1 0.1 0.2 0.2 0 0.1 0 0.3v7q-0.1 0.5 0.4 0.3z"/><path  d="m370 678.9q1.7-2.7 2.3-5.7 0.4-1.4-1.1-1.8-0.3-0.1-0.4-0.3-0.1-0.1-0.1-0.4 0-0.2 0.2-0.3 0.2-0.2 0.4-0.2l3.9 0.1q0.1 0 0.1 0 0.2 0.1 0.2 0.2 0.1 0 0.1 0.2 0 0.1 0 0.2-0.3 0.6-1.1 0.9 0 0-0.1 0-0.1 0.1-0.1 0.1-0.1 0-0.1 0.1 0 0 0 0.1-2.5 5.7-4.6 11.4c-0.8 2.4-2.3 5-5.3 4.1-0.8-0.3-1.5-0.9-1.3-1.8q0.1-0.3 0.3-0.5 0.2-0.3 0.4-0.4 0.3-0.1 0.6-0.1 0.3 0.1 0.5 0.2l1.4 0.7q0.1 0.1 0.2 0.1 0.1 0 0.1 0 0.1 0 0.2 0 0.1-0.1 0.1-0.1c1.5-1 2.1-2.3 1.3-4q-2.2-5-4.6-10-0.1 0-0.2-0.1 0-0.1-0.1-0.1-0.1 0-0.1-0.1-0.1 0-0.2 0h-4.1q-0.5 0-0.5 0.5 0 3.7-0.1 7.4-0.1 2.3 2.3 2 0.8-0.1 1.3-0.1 0.2 0 0.3 0.2 0.2 0.1 0.2 0.3 0.1 0.2 0 0.4-0.2 0.2-0.3 0.3-2.5 1-5.2 0.2 0 0-0.2-0.1 0 0-0.1 0 0-0.1-0.1-0.1-0.1-0.1-0.1-0.2c-1.2-2.2-0.7-7.1-0.7-9.6q0-1.5-1.5-1.2-0.2 0-0.4-0.2-0.2-0.6 0.3-0.8 2.1-0.8 3.1-2.7 0.1-0.2 0.3-0.2 0.2-0.1 0.4-0.1 0.2 0.1 0.3 0.3 0.2 0.1 0.2 0.3v1.8q0 0.1 0 0.1 0.1 0.1 0.2 0.2 0 0.1 0.1 0.1 0.1 0 0.2 0l9.1 0.1q0.4 0 0.4 0.4v0.3q0 0.2-0.2 0.3l-1.1 0.4q-0.2 0-0.2 0.1-0.1 0.1-0.2 0.1 0 0.1 0 0.2 0 0.1 0 0.2l3 6.5q0.2 0.5 0.4 0.1z"/><path  d="m277.8 672c1-1 1.8-2.3 3.6-1.8q2.4 0.8 1.2 3-0.1 0.2-0.2 0.3-0.2 0.1-0.4 0.2-0.2 0-0.4 0-0.2-0.1-0.3-0.2l-1.4-0.9q-0.3-0.2-0.5-0.1c-2.6 1.4-2.1 5.3-1.8 8.2q0 0.1 0 0.2 0.1 0 0.2 0.1 0 0 0 0.1 0.1 0 0.1 0.1 0.9 0.3 1.8 0.4 0.1 0 0.1 0 0 0 0.1 0.1 0 0 0 0 0 0 0 0.1l0.2 0.5q0 0.1 0 0.2 0 0 0 0.1-0.1 0.1-0.2 0.1 0 0-0.1 0l-6.6 0.1q-0.3 0-0.4-0.4l-0.1-0.2q0-0.4 0.3-0.5l1.3-0.5q0.1 0 0.1 0 0.2-0.1 0.2-0.2 0 0 0-0.1 0.1-0.1 0.1-0.2v-7.3q0-0.4-0.2-0.5l-1.4-0.8q-0.1-0.1-0.2-0.3-0.1-0.1-0.1-0.3 0.1-0.2 0.2-0.3 0.1-0.2 0.3-0.2l3.5-1q0.1 0 0.1 0 0.2 0 0.2 0.1 0.1 0.1 0.2 0.1 0 0.2 0 0.2l0.1 1.5q0 0.4 0.4 0.1z"/><path  d="m299.9 680.5v-7.4q0-0.1 0-0.2-0.1 0-0.1-0.1 0-0.1-0.1-0.1-0.1-0.1-0.1-0.1l-1.1-0.6q-0.1-0.1-0.2-0.3-0.1-0.2 0-0.3 0-0.2 0.1-0.4 0.1-0.1 0.3-0.1l3.3-1q0.1 0 0.3 0 0.1 0.1 0.1 0.1 0.1 0.1 0.2 0.2 0 0.1 0 0.2 0.1 4.6 0.2 9.4 0 1.6 1.4 1.9 0.2 0 0.3 0.2 0.1 0.1 0.1 0.3 0 0.2-0.2 0.4-0.1 0.1-0.3 0.1l-5.5 0.1q-0.2 0-0.3-0.1-0.2-0.2-0.2-0.4-0.1-0.2 0-0.4 0.1-0.2 0.3-0.3l1.1-0.4q0.1-0.1 0.1-0.2 0.1 0 0.2-0.1 0 0 0-0.2 0.1 0 0.1-0.2z"/><path  d="m310.7 671.5c2.4-1.5 5.8-2.6 7.2 0.5 1 2 0.5 6 0.6 8.7q0.1 0 0.1 0.1 0 0.1 0 0.1 0 0 0.1 0.1 0.1 0 0.1 0l1.6 1q0.1 0 0.2 0.2 0 0.1 0 0.2 0 0.1-0.2 0.3-0.1 0-0.2 0l-5.9 0.1q-0.2-0.1-0.4-0.1-0.1-0.2-0.1-0.3-0.1-0.2 0-0.4 0.1-0.1 0.2-0.1l1.3-0.8q0.4-0.2 0.4-0.6 0.2-2.9 0.1-5.8c-0.2-3.7-3.7-3.2-5.4-1.3q-0.3 0.3-0.3 0.6l0.1 6.6q0 0.1 0 0.2 0 0.1 0.1 0.1 0 0.1 0.1 0.1 0 0.1 0.1 0.1l1.2 0.5q0.2 0.1 0.3 0.3 0.1 0.2 0.1 0.4-0.1 0.2-0.2 0.3-0.2 0.2-0.5 0.2l-5.4-0.1q-0.2 0-0.4-0.1-0.2-0.2-0.2-0.4 0-0.2 0.2-0.4 0.1-0.2 0.3-0.2c1.2-0.1 1.4-0.9 1.5-2q0.2-3.1 0-6.2 0 0 0-0.1 0-0.1 0-0.1-0.1-0.1-0.1-0.2-0.1 0-0.2 0l-1.3-0.9q-0.2-0.1-0.2-0.2-0.1-0.2-0.1-0.4 0.1-0.1 0.2-0.3 0.1-0.1 0.2-0.2l3.5-0.8q0.3-0.1 0.4 0.2l0.4 1q0.1 0.3 0.5 0.1z"/><path  d="m425.7 672.5q-0.9-0.3-1.3-1 0-0.1 0-0.2 0-0.1 0-0.1 0-0.1 0.1-0.2 0 0 0.1-0.1l3.5-0.9q0.1-0.1 0.3-0.1 0.1 0.1 0.2 0.1 0.1 0.1 0.2 0.2 0.1 0.2 0.1 0.3v9.9q0 0.4 0.3 0.6l1.4 0.9q0.1 0.1 0.2 0.2 0 0.2 0 0.3-0.1 0.1-0.2 0.3-0.1 0-0.3 0h-5.8q-0.1 0-0.3-0.1-0.2-0.1-0.2-0.4 0-0.2 0.1-0.3 0.2-0.2 0.4-0.2c1.1-0.2 1.5-0.8 1.6-1.9q0.3-3.4-0.1-6.9 0 0 0-0.1 0-0.1-0.1-0.2 0-0.1-0.1-0.1-0.1 0-0.1 0z"/><path fill-rule="evenodd" d="m507 672.9c0.9 4.8-2.9 5.7-6.6 5.6q-0.4 0-0.7 0.2-0.3 0.2-0.3 0.5c0 0.3 0 0.5 0.2 0.7 0.1 0.1 0.3 0.3 0.5 0.3 2.1 0.5 6.1-0.2 7.7 1.3 2 1.9 0.5 4.5-1.6 5.4q-3.7 1.5-7.5 0.5c-2.6-0.7-3.3-2.9-0.9-4.4q0.1-0.1 0.1-0.1 0-0.1 0-0.2 0-0.1 0-0.2 0 0 0-0.1-1.8-2.2 0.7-3.9 0.1 0 0.1-0.2 0.2-0.1 0.2-0.3 0-0.1-0.2-0.3 0-0.2-0.1-0.2c-1.8-1.3-2-3.7-0.8-5.5 1.4-2 3.5-2.1 6-1.8q2.7 0.3 5.4 0.5 0.5 0 0.4 0.5l-0.2 1.2q0 0.1 0 0.1-0.1 0.1-0.2 0.1 0 0.1-0.1 0.1 0 0-0.1 0l-1.8-0.1q-0.3-0.1-0.2 0.3zm-4.4 4.5q0.5-0.2 0.8-0.4 0.5-0.3 0.7-0.8 0.3-0.5 0.4-1.1 0.1-0.6 0-1.2-0.1-0.6-0.3-1.2-0.3-0.5-0.7-0.8-0.4-0.4-0.9-0.6-0.5-0.2-1-0.1-0.4 0.1-0.9 0.4-0.3 0.3-0.6 0.8-0.3 0.5-0.4 1-0.1 0.6 0 1.2 0.1 0.6 0.4 1.2 0.2 0.5 0.6 0.9 0.4 0.3 0.9 0.5 0.5 0.2 1 0.2zm4.3 7.1q0-0.4-0.3-0.7-0.4-0.3-1-0.6-0.6-0.2-1.4-0.3-0.8-0.2-1.7-0.1-0.8 0-1.6 0.2-0.8 0.2-1.4 0.4-0.6 0.3-0.9 0.7-0.4 0.3-0.4 0.7 0 0.4 0.4 0.7 0.3 0.4 1 0.6 0.6 0.2 1.4 0.3 0.8 0.1 1.6 0.1 0.9 0 1.7-0.2 0.8-0.2 1.4-0.4 0.6-0.4 0.9-0.7 0.3-0.3 0.3-0.7z"/><path fill-rule="evenodd" d="m520.8 680.2l0.7 0.2q0.3 0 0.4 0.2 0.2 0.2 0.2 0.4 0.1 0.2 0.1 0.5-0.1 0.2-0.3 0.4-2.5 2.4-4.1-0.5-0.2-0.3-0.5 0-1.9 1.7-3.9 1.5c-2.8-0.2-4.2-3.1-2.1-5.1 1.4-1.4 4-1.9 5.9-2.5q0.3-0.1 0.4-0.4c0.8-2.8-1.4-4.7-4-3.2q-0.3 0.2-0.2 0.7l0.2 1.6q0.2 0.5-0.3 0.6l-1.5 0.5q-0.1 0.1-0.1 0.1-0.1 0-0.2-0.1-0.1 0-0.1-0.1-0.1 0-0.1-0.1c-2.9-5.4 9.2-7.2 9.1-1.4q-0.1 3.2 0 6.4 0.1 0.3 0.4 0.3zm-3.7 0.1q0.1 0 0.2-0.1 0.1 0 0.1-0.1 0.1-0.1 0.2-0.2 0-0.1 0-0.2l0.2-2.4q0-0.2-0.1-0.4-0.1-0.2-0.3-0.2-0.1-0.2-0.3-0.2-0.2 0-0.3 0.1l-3.4 1.6q-0.1 0.1-0.1 0.2-0.1 0.1-0.2 0.2 0 0.1 0 0.3 0 0.1 0 0.2l0.6 1.5q0.1 0.1 0.1 0.3 0.1 0.1 0.3 0.1 0 0 0.2 0.1 0.1 0 0.3-0.1z"/><path  d="m528.5 671.6c2.4-1.6 5.8-2.7 7.3 0.5 0.9 2 0.5 5.9 0.5 8.6q0 0.2 0.3 0.3l1.3 0.8q0.2 0.1 0.3 0.2 0.1 0.2 0 0.4 0 0.1-0.2 0.3-0.1 0-0.3 0h-5.6q-0.2 0-0.3 0-0.2-0.2-0.2-0.3 0-0.2 0-0.4 0.2-0.1 0.3-0.2l1.2-0.6q0.1-0.1 0.2-0.2 0 0 0 0 0.1-0.1 0.1-0.1 0-0.2 0-0.2c0.3-2 0.2-3.9 0.2-5.9 0.2-3.8-3.8-3.3-5.5-1.3q0 0-0.1 0.1-0.1 0.1-0.1 0.1 0 0.1 0 0.2 0 0.1 0 0.1v6.5q0 0.2 0 0.2 0.1 0.1 0.2 0.2 0 0.1 0 0.1 0.1 0.1 0.2 0.1l1.4 0.7q0.2 0.1 0.2 0.2 0.1 0.2 0.1 0.4-0.1 0.1-0.2 0.2-0.1 0.1-0.3 0.1h-5.8q-0.2 0-0.3 0-0.1-0.2-0.2-0.3-0.1-0.2 0-0.4 0.1-0.1 0.2-0.2l1.5-0.9q0.1 0 0.2 0 0 0 0-0.1 0.1-0.1 0.1-0.1 0-0.1 0-0.2l0.1-7q0-0.4-0.4-0.6l-1.1-0.6q-0.2-0.1-0.4-0.3 0-0.2 0-0.5 0-0.1 0.2-0.3 0.1-0.2 0.3-0.2l3.3-0.8q0.4-0.2 0.5 0.3l0.2 0.9q0.1 0.1 0.1 0.1 0.1 0.1 0.2 0.1 0.1 0.1 0.1 0 0.1 0 0.2 0z"/><path  d="m547.8 680.3c0.6-0.3 1.4-0.9 2.1-1.1q0.2 0 0.4 0.1 0.2 0.1 0.3 0.2 0.1 0.2 0.1 0.4 0 0.1-0.1 0.3-2.8 3.3-6.2 2.7c-8.3-1.6-5.6-15.6 4.4-12.4 1 0.4 1.6 1 1.8 2q0 0.2 0 0.5-0.1 0.2-0.3 0.4-0.1 0.3-0.3 0.4-0.2 0.2-0.5 0.2-0.8 0.2-1.2-0.6c-1.1-2-2.6-3-4.6-1.6-3.7 2.4-0.9 10 4.1 8.5z"/><path fill-rule="evenodd" d="m554.9 675.5q-0.1 1.6 0.5 2.5 2.8 4.1 7.4 1.4 0.1 0 0.2 0 0 0 0.1 0 0 0 0.1 0.1 0.1 0 0.1 0.1 0.1 1.1-0.9 1.8c-8 5.6-13.5-5.1-7.7-10.1 2.9-2.6 8.4-1.1 8.8 3.1q0 0.1 0 0.3 0 0.2-0.2 0.3-0.1 0.1-0.2 0.2-0.2 0-0.4 0l-7.4 0.1q-0.3 0-0.4 0.2zm4.8-1.5q0.2 0 0.4-0.2 0.3-0.1 0.3-0.4 0.1-0.2 0-0.4 0-0.3-0.2-0.5l-1.6-1.2q0-0.1-0.1-0.1-0.1-0.1-0.2-0.1-0.1 0-0.2 0-0.1 0-0.2 0l-1.5 0.4q0 0-0.1 0.1 0 0-0.1 0.1-0.1 0-0.1 0 0 0-0.1 0.1l-0.7 0.9q-0.2 0.2-0.2 0.4 0 0.2 0.1 0.4 0.1 0.2 0.2 0.4 0.3 0.1 0.5 0.1z"/><path fill-rule="evenodd" d="m263.1 675.7q0.4 4.7 5 4.7c1 0 1.9-0.5 2.8-0.9q0.2-0.1 0.4 0 0.2 0 0.3 0.2 0.1 0.2 0.1 0.5 0 0.2-0.1 0.3-4.5 4.4-8.6 1.2c-3.3-2.6-3.1-8.2 0.2-10.6 3.2-2.4 7.7-0.9 8.7 3.1q0 0.2 0 0.4 0 0.2-0.2 0.3-0.1 0.2-0.3 0.3-0.1 0-0.3 0l-7.5 0.1q-0.1 0-0.2 0-0.1 0.1-0.2 0.1 0 0.1 0 0.1-0.1 0.2-0.1 0.2zm5.5-1.8q0 0 0 0 0 0 0.1 0 0 0 0-0.1v-0.1q0-0.5-0.2-0.9-0.3-0.4-0.6-0.8-0.3-0.4-0.8-0.5-0.5-0.2-1-0.2h-0.2q-0.5 0-1 0.2-0.4 0.2-0.8 0.5-0.4 0.4-0.5 0.9-0.2 0.5-0.2 1 0 0 0 0 0 0 0.1 0.1z"/><path fill-rule="evenodd" d="m294.6 673q0.7 3.3-1.8 4.8c-1.5 0.9-4.1 0.2-5.1 1q-1.1 0.7 0.2 1.6 0.1 0 0.2 0 0 0 0.1 0 0.1 0.1 0.1 0.1 0.1 0 0.1 0 2.5-0.1 4.9 0.2c3.8 0.5 4.3 4.2 1.1 5.8q-4.3 2.3-8.9 0.6c-2.7-1-1.1-2.9 0-4.3q0.1-0.1 0.1-0.1 0-0.1 0-0.2 0 0 0-0.1-0.1 0-0.1-0.1c-1.6-1.8-0.1-2.9 1-4.1q0.1-0.1 0.1-0.2 0 0 0-0.1 0-0.1 0-0.2 0 0-0.1 0c-3.9-3.2-0.9-8 3.8-7.5q3.1 0.3 6.3 0.4 0.6 0.1 0.5 0.6v1.2q0 0-0.1 0.1 0 0.1-0.1 0.2-0.1 0-0.1 0-0.2 0.1-0.2 0l-1.6-0.1q-0.4-0.1-0.4 0.4zm-4.4 4.4q0.5-0.1 0.9-0.4 0.4-0.3 0.7-0.8 0.3-0.4 0.4-1 0.1-0.6 0-1.2-0.1-0.6-0.3-1.2-0.3-0.6-0.7-0.9-0.4-0.4-0.8-0.6-0.5-0.2-1-0.1-0.5 0-0.8 0.3-0.5 0.3-0.7 0.8-0.3 0.5-0.5 1.1 0 0.6 0 1.1 0.1 0.7 0.4 1.2 0.2 0.6 0.6 1 0.4 0.3 0.9 0.5 0.5 0.2 0.9 0.2zm4.5 7.1q0-0.4-0.4-0.7-0.3-0.3-0.9-0.6-0.6-0.2-1.5-0.3-0.8-0.2-1.6-0.1-0.9 0-1.7 0.2-0.8 0.2-1.5 0.4-0.5 0.3-0.8 0.7-0.4 0.3-0.4 0.7 0 0.4 0.4 0.7 0.3 0.4 1 0.5 0.6 0.3 1.4 0.4 0.8 0.1 1.7 0.1 0.9 0 1.7-0.2 0.8-0.2 1.3-0.4 0.7-0.4 1-0.7 0.3-0.3 0.3-0.7z"/><path fill-rule="evenodd" d="m331.6 673c0.9 3.9-2.1 5.7-5.6 5.5q-0.7-0.1-1 0.1-1.2 0.4-0.5 1.5 0 0.1 0.1 0.2 0 0.1 0.2 0.1 0 0.1 0.2 0.1 0.1 0 0.2 0 2.5-0.1 4.6 0.1c4.7 0.5 4.8 4.8 0.8 6.4-2 0.7-8 1.5-9.3-0.8-0.9-1.5 0.3-2.3 1.2-3.5q0 0 0-0.1 0.1-0.1 0.1-0.1 0-0.1-0.1-0.1 0-0.2-0.1-0.2-0.7-0.8-0.6-1.8 0-0.1 0-0.2 0 0 0-0.2 0 0 0.1-0.1 0 0 0.1-0.1l1.5-1.6q0 0 0-0.1 0-0.1 0-0.2 0 0 0-0.1 0-0.1-0.1-0.1c-4.2-3.5-0.2-8.3 4.3-7.6q3.5 0.5 6 0.5 0.1 0.1 0.2 0.1 0.1 0 0.1 0 0 0.1 0.1 0.2 0 0 0 0.1c0 0.1 0 1.4 0 1.5q-0.1 0.1-0.1 0.2-0.1 0-0.2 0-0.1 0.1-0.2 0l-1.7-0.1q-0.1 0-0.2 0-0.1 0.1-0.1 0.1 0 0 0 0.2-0.1 0 0 0.1zm-4.4 4.4q0.5-0.1 0.9-0.4 0.4-0.3 0.7-0.8 0.2-0.5 0.3-1.1 0.2-0.6 0-1.2 0-0.6-0.3-1.1-0.3-0.6-0.7-0.9-0.3-0.4-0.8-0.6-0.5-0.2-1-0.1-0.5 0.1-0.8 0.3-0.5 0.4-0.7 0.9-0.3 0.5-0.4 1-0.1 0.6 0 1.2 0.1 0.6 0.4 1.2 0.2 0.5 0.6 0.9 0.4 0.4 0.9 0.5 0.5 0.2 0.9 0.2zm4.4 7.1q0-0.4-0.4-0.8-0.3-0.3-0.9-0.5-0.7-0.2-1.5-0.3-0.8-0.2-1.7-0.1-0.8 0-1.6 0.2-0.8 0.2-1.4 0.5-0.6 0.2-0.9 0.6-0.3 0.4-0.3 0.8 0.1 0.3 0.4 0.6 0.3 0.4 1 0.6 0.6 0.3 1.3 0.3 0.9 0.1 1.7 0.1 0.9 0 1.7-0.2 0.8-0.2 1.4-0.4 0.6-0.4 0.9-0.7 0.3-0.3 0.3-0.7z"/><path  d="m350 673.9c-0.5-2-2.9-3.9-4.5-1.8q-0.2 0.3-0.2 0.6c0.6 3.3 6.8 2 6.6 6.8-0.1 4-5.7 3.9-8.4 2.5q-0.2-0.2-0.2-0.5v-2.7q0-0.2 0.1-0.4 0.1-0.1 0.3-0.2 0.2 0 0.4 0.1 0.2 0.1 0.2 0.3c0.5 1 0.8 2.2 1.8 2.8 2.5 1.4 4.9-1.7 2.8-2.8-1.7-0.9-4-1.7-5.3-3.2-1.6-2-0.1-4.7 2.3-5.2 2.4-0.5 6.4 0.2 4.9 3.7q0 0.2-0.2 0.3-0.1 0-0.3 0-0.1 0-0.2-0.1-0.1-0.1-0.1-0.2z"/><path fill-rule="evenodd" d="m386.3 675.5c-0.3 4.4 4.4 6.2 7.7 3.9q0-0.1 0.2-0.1 0.1 0 0.2 0.1 0.1 0.1 0.2 0.1 0.1 0.2 0.1 0.3c-0.5 2.2-3.8 3.3-5.5 3.2-8.2-0.7-6.6-14.6 1.7-12.8q2.7 0.6 4.1 3.7 0.1 0.2 0 0.5 0 0.2-0.1 0.4-0.1 0.2-0.4 0.3-0.2 0.1-0.4 0.1l-7.5 0.1q-0.3 0-0.3 0.2zm1.5-4q-0.1 0-0.1 0.1-0.1 0-0.2 0.1 0 0-0.1 0 0 0.1-0.1 0.2l-0.6 0.9q-0.2 0.1-0.2 0.4 0 0.2 0.1 0.3 0.1 0.2 0.3 0.4 0.1 0.1 0.4 0.1h3.9q0.1 0 0.3-0.1 0.2-0.2 0.3-0.4 0.1-0.2 0-0.5 0-0.2-0.1-0.3l-1.6-1.4q-0.1-0.1-0.1-0.1-0.2 0-0.2-0.1-0.1 0-0.2 0-0.1 0-0.2 0.1z"/><path fill-rule="evenodd" d="m467.4 675.3q-1.5 0-1 1.3 2.1 5.8 7.7 2.9 0.2-0.1 0.4 0 0.2 0 0.2 0.2 0.2 0.1 0.2 0.3 0 0.2-0.2 0.4-3.6 4.2-7.8 1.8c-4.7-2.8-3.7-11 1.7-12 3-0.6 6 0.8 6.5 4q0 0.2-0.1 0.4-0.1 0.2-0.2 0.4-0.1 0.1-0.3 0.2-0.2 0-0.4 0zm-0.5-1.3c0 0 5 0 5 0q0 0 0.1 0 0 0 0-0.1v-0.1q0-0.5-0.2-0.9-0.2-0.4-0.6-0.8-0.3-0.4-0.8-0.6-0.5-0.2-1-0.2h-0.1q-0.5 0-1 0.2-0.4 0.2-0.8 0.6-0.4 0.4-0.6 0.8-0.2 0.4-0.2 0.9c0 0.1 0 0.2 0 0.2q0.1 0 0.1 0 0 0 0.1 0z"/><path fill-rule="evenodd" d="m487.1 675.3q-1.6 0-1 1.5 2.3 5.7 7.8 2.6 0.2 0 0.3 0 0.2 0 0.2 0.1 0.2 0.1 0.2 0.2 0 0.2-0.1 0.3c-1.6 3.1-5.9 4-8.6 1.8-4.7-3.9-1.9-12.9 4.8-11.6q3.7 0.7 4 4.7 0 0 0 0.1 0 0 0 0.1-0.1 0.1-0.1 0.1-0.1 0-0.2 0zm-0.6-1.3c0 0 5 0 5 0q0.1 0 0.1 0 0 0 0 0 0-0.1 0-0.1v-0.1q0-0.5-0.2-1-0.1-0.4-0.5-0.8-0.4-0.4-0.8-0.5-0.5-0.2-1-0.2h-0.2q-0.5 0-1 0.2-0.5 0.1-0.8 0.5-0.3 0.3-0.6 0.8-0.2 0.5-0.2 1c0 0 0 0.1 0 0.1q0.1 0.1 0.1 0.1 0 0 0 0 0 0 0.1 0z"/><path  d="m417.4 678.4q0.4 1 0.8 0l2.1-5.5q0.1-0.2 0.1-0.5 0-0.2-0.2-0.4 0-0.1-0.2-0.3-0.2-0.1-0.4-0.2-0.6-0.1-0.8-0.6-0.1-0.1-0.1-0.2 0-0.2 0.1-0.2 0.1-0.1 0.1-0.2 0.1 0 0.3-0.1h3.8q0.1 0 0.2 0.1 0.1 0.1 0.2 0.2 0 0.1 0 0.2-0.1 0.2-0.2 0.2l-1.2 1.1q-0.3 0.3-0.4 0.6l-4 10.3q-0.1 0.1-0.2 0.3-0.2 0-0.4 0-0.2 0-0.3 0-0.2-0.2-0.3-0.3l-2.8-7q-0.1-0.1-0.1-0.1-0.1-0.1-0.2-0.1 0 0-0.1 0.1 0 0 0 0.1l-3 7q-0.1 0.1-0.3 0.3-0.1 0.1-0.4 0.1-0.2 0-0.3-0.1-0.2-0.2-0.3-0.3-2-5-3.7-9.5c-0.5-1-1.2-1.6-1.7-2.6q-0.1-0.1-0.1-0.2 0-0.1 0.1-0.2 0 0 0.1-0.1 0.1-0.1 0.2-0.1h4.5q0.1 0 0.2 0.1 0.1 0.1 0.2 0.1 0 0.1 0 0.2 0 0.1 0 0.1-0.2 0.8-1 1.2 0 0-0.1 0-0.1 0.1-0.1 0.1 0 0.1 0 0.2 0 0 0 0.1l2.5 6.6q0.1 0 0.2 0.1 0.1 0 0.1 0 0.2 0 0.2 0 0.1-0.1 0.2-0.1c0.8-2 3.6-6.3 0.2-7.5q-0.2-0.1-0.3-0.3-0.1-0.1-0.1-0.4 0.1-0.2 0.2-0.3 0.2-0.1 0.4-0.2h5.2q0 0 0.2 0.1 0 0.1 0.1 0.1 0.1 0.1 0.1 0.2 0 0.1 0 0.2-0.1 0.5-0.7 0.6-0.2 0.1-0.4 0.2-0.2 0.1-0.3 0.3-0.1 0.3-0.1 0.5-0.1 0.2 0 0.5z"/><path class="d" d="m263.5 674q-0.1-0.1-0.1-0.1 0 0 0 0 0-0.5 0.2-1 0.1-0.5 0.5-0.9 0.4-0.3 0.8-0.5 0.5-0.2 1-0.2h0.2q0.5 0 1 0.2 0.5 0.1 0.8 0.5 0.3 0.4 0.6 0.8 0.2 0.4 0.2 0.9v0.1q0 0.1 0 0.1-0.1 0-0.1 0 0 0 0 0z"/><path class="d" d="m287.4 674.5c-0.2-1.6 0.7-3.1 2-3.3 1.4-0.2 2.6 1 2.8 2.8 0.2 1.7-0.7 3.2-2 3.4-1.3 0.1-2.6-1.1-2.8-2.9z"/><path class="d" d="m324.4 674.6c-0.3-1.7 0.6-3.2 1.9-3.4 1.3-0.2 2.6 1 2.8 2.7 0.3 1.7-0.6 3.3-1.9 3.5-1.3 0.1-2.6-1-2.8-2.8z"/><path class="d" d="m387.8 671.5l1.6-0.3q0.1-0.1 0.2-0.1 0.1 0 0.2 0 0 0.1 0.2 0.1 0 0 0.1 0.1l1.6 1.4q0.1 0.1 0.1 0.3 0.1 0.3 0 0.5-0.1 0.2-0.3 0.4-0.2 0.1-0.3 0.1h-3.9q-0.3 0-0.4-0.1-0.2-0.2-0.3-0.4-0.1-0.1-0.1-0.3 0-0.3 0.2-0.4l0.6-0.9q0.1-0.1 0.1-0.2 0.1 0 0.1 0 0.1-0.1 0.2-0.1 0-0.1 0.1-0.1z"/><path class="d" d="m466.7 673.9q0 0 0 0 0 0 0 0 0 0 0-0.1 0-0.5 0.2-1 0.2-0.4 0.5-0.8 0.3-0.4 0.8-0.6 0.5-0.2 1-0.2h0.2q0.5 0 1 0.2 0.4 0.2 0.8 0.6 0.4 0.4 0.5 0.8 0.2 0.5 0.2 1 0 0.1 0 0.1 0 0 0 0-0.1 0-0.1 0z"/><path class="d" d="m486.4 674q0 0 0 0 0 0 0-0.1-0.1 0-0.1 0 0 0 0-0.1v-0.1q0-0.5 0.2-0.9 0.2-0.5 0.6-0.8 0.3-0.4 0.8-0.6 0.4-0.2 0.9-0.2h0.3q0.5 0 0.9 0.2 0.5 0.2 0.9 0.6 0.3 0.4 0.5 0.8 0.2 0.4 0.2 0.9v0.2q0 0 0 0-0.1 0.1-0.1 0.1-0.1 0-0.1 0z"/><path class="d" d="m499.7 674.6c-0.3-1.7 0.6-3.2 1.9-3.4 1.4-0.2 2.6 1 2.9 2.7 0.3 1.7-0.6 3.2-1.9 3.5-1.4 0.1-2.7-1-2.9-2.8z"/><path class="d" d="m559.7 674h-3.8q-0.2 0-0.5-0.1-0.1-0.2-0.2-0.4-0.1-0.2-0.1-0.4 0-0.2 0.2-0.4l0.7-0.9q0.1-0.1 0.1-0.1 0 0 0.1 0 0.1-0.1 0.1-0.1 0.1-0.1 0.1-0.1l1.5-0.4q0.1 0 0.2 0 0.1 0 0.2 0 0.1 0 0.2 0.1 0.1 0 0.1 0.1l1.6 1.2q0.2 0.2 0.2 0.5 0.1 0.2 0 0.4 0 0.3-0.3 0.4-0.2 0.2-0.4 0.2z"/><path class="d" d="m517.1 680.3l-2.5 0.7q-0.2 0.1-0.3 0.1-0.2-0.1-0.2-0.1-0.2 0-0.3-0.1 0-0.2-0.1-0.3l-0.6-1.4q0-0.2 0-0.3 0-0.2 0-0.3 0.1-0.1 0.2-0.2 0-0.1 0.1-0.2l3.4-1.6q0.1-0.1 0.3-0.1 0.2 0 0.3 0.2 0.2 0 0.3 0.2 0.1 0.2 0.1 0.4l-0.2 2.4q0 0.1 0 0.2-0.1 0.1-0.2 0.2 0 0.1-0.1 0.1-0.1 0.1-0.2 0.1z"/><path class="d" d="m290.3 686.5c-2.4 0-4.4-0.8-4.4-1.9 0-1 2-1.8 4.4-1.8 2.4 0 4.4 0.8 4.4 1.8 0 1.1-2 1.9-4.4 1.9z"/><path class="d" d="m327.2 686.5c-2.4 0-4.3-0.8-4.3-1.9 0-1 1.9-1.8 4.3-1.8 2.4 0 4.4 0.8 4.4 1.8 0 1.1-2 1.9-4.4 1.9z"/><path class="d" d="m502.6 686.5c-2.4 0-4.4-0.8-4.4-1.9 0-1 2-1.8 4.4-1.8 2.4 0 4.3 0.8 4.3 1.8 0 1.1-1.9 1.9-4.3 1.9z"/><path fill-rule="evenodd" d="m1057.6 445.5q0.4 0 0.8 0 0 0 0.3-0.4 0.4 0 0.4-0.4 0-0.3 0-0.3 0.4-78.1 0-156.2c0-29.2 14.1-41.5 42.2-41.8q29.2 0 57.7-0.4 0.8 0 1.5 0.7 0.7 0.4 0.7 1.2 0.4 0.7 0 1.4-0.3 0.8-1.1 1.1c-18.1 8.6-35.5 18.2-35.5 41.9q0 135 1.1 208.7 0 16.6 9.3 30c7 10.3 22.2 16.6 32.5 24.8q0.8 0.3 0.8 1.1 0.4 0.3 0 1.1 0 0.3-0.8 0.7-0.3 0.4-1.1 0.8-33.3 0.7-67.3-1.2c-29.6-1.1-43.7-26.2-61.8-45.1q-77-78.8-154.7-158.4-0.4-0.4-0.8-0.7-0.3 0-0.7 0.3-0.4 0-0.4 0.4-0.3 0.4-0.3 0.7-0.4 84.1-0.8 168.8c0 22.6-18.1 32.2-38.8 33.3q-29.6 1.5-57.8 4.1-1.1 0-2.2-0.8-0.7-0.3-1.1-1.4-0.4-1.2 0-2.3 0.4-1.1 1.5-1.4c20-11.1 32.5-17.8 32.5-43.7q0.4-95.1 1.2-190.6 0-22.9-6-39.6c-4.8-14.4-24.8-22.9-37-31.8q-0.7-0.4-0.7-1.1-0.4-0.8 0-1.5 0-0.4 0.7-1.1 0.4-0.4 1.1-0.4 32.2 0.7 65.2 0.4c22.9-0.4 40.7 15.1 57 31.4q81 81.8 159.8 165.8 1.1 1.1 2.6 1.9zm415.3-43.7q-19.7 1.9-37.4 10.7-11.1 5.2-3.7-4.4 16.3-21.8 41.4-30.7 2.2-0.8 2.2-3 0.8-17.7 0-35.1c-0.7-20.4-9.9-25.9-25.5-35.9q-0.7-0.4-1.1-1.1-0.4-1.2-0.4-1.9-0.3-0.4 0-0.7 0-0.4 0.4-0.8 0.4-0.3 0.7-0.7 0.8 0 1.2 0c17.7 0 49.5-3.3 64.3 4.8 23 12.6 17.4 35.9 17.4 57.4q0 4 3.7 3.7c14.8-1.5 33.3-4.5 41.9-17.4q1.4-2.6 1.8 0.3 0.4 1.5-0.7 3.4-14.1 25.5-42.6 36.2-4.4 1.5-4.1 6 0 53.6 0 108c-0.3 25.9 1.5 43.3 25.9 52.9q0.8 0.4 1.5 1.1 0.4 0.4 0.4 1.2 0.4 0.7 0 1.4 0 0.8-0.4 1.5-0.7 0.8-2.6 0.8c-19.6 0.3-51.4 3.3-66.6-6q-15.2-9.2-15.2-31.1 0.4-58.8 0-118 0-3-2.5-2.6zm1277.1-11.8c32.6-25.2 64.4-40.7 105.1-35.6 30.3 3.7 61.1 24.5 71.4 54.8q3.4 10 3.4 34.4-0.4 35.5 0 71.1 0.3 25.1 21.4 36.2 1.1 0.8 1.5 1.9 0.7 1.1 0.4 2.2-0.4 1.1-1.1 1.5-0.8 0.7-1.9 1.1-20.3 0.7-41.4-2.2c-24.1-3-30.8-24.4-30.8-45.2q0.4-60.7-0.7-81.4c-1.1-22.2-14.4-37-36.3-42.2q-37-8.9-67.7 20c-8.5 7.8-10.3 12.2-10.3 24.4q-0.4 35.6 0 71.1c0.3 24.4-0.8 38.9 21.8 52.2q0.7 0.3 1.1 1.1 0.4 0.7 0 1.5 0 0.7-0.7 1.4-0.4 0.4-1.2 0.4-23.6 2.6-48.4-1.5c-19.3-3.3-23.7-32.2-24.1-47q-0.4-34-0.4-68.1c0.4-61-64-64.7-102.5-36.6-12.2 8.9-16.6 14.8-16.6 30.7q-0.4 60.3 0 119.6 0 0.7-0.4 1.4 0 0.8-0.7 1.1-0.4 0.4-1.1 0.8-0.8 0.4-1.5 0.4h-41.5q-0.3 0-1.1-0.4-0.4 0-0.7-0.4 0-0.4-0.4-0.7 0-0.4 0-0.8 0-71.4-0.4-142.1c0-24.4-2.2-40.7-23.7-51.8q-0.7-0.4-1.1-1.1-0.3-0.7-0.3-1.8 0.3-0.8 0.7-1.5 0.7-0.4 1.9-0.4 20.3-1.8 41 1.1c13.4 1.9 20 9.6 25.2 21.1q0.4 0.7 1.1 1.1 0.4 0.4 1.5 0.8 0.7 0.3 1.5 0 0.7 0 1.5-0.4c44.4-30.4 114.3-38.1 153.2 7.4q0.3 0.4 0.7 0.7 0.4 0 0.7 0.4 0.4 0 0.8-0.4 0.7 0 1.1-0.3zm-577.7 99.5q3 1.9 4.8-2.2 25.9-54 48.5-108.4 0.4-1.2 0.4-2.3 0-1.4-0.4-2.6-0.4-1.1-1.5-2.2-0.7-0.7-2.2-1.5l-17-7q-0.8 0-1.1-0.7-0.4-0.8-0.4-1.5 0-0.7 0.4-1.5 0.7-0.7 1.4-0.7c11.5-3.7 56.3-10 57.4 11.1q0.4 5.2-4.4 16.3-55.2 121.7-112.2 242.7c-14.8 31.1-44 4.1-57-11.4q-0.7-0.8-0.7-1.9 0-1.1 0.4-1.8 0.7-1.2 1.4-1.5 1.2-0.4 1.9 0c8.5 2.2 25.2 5.9 30.3-4.5q14.1-27 25.6-54 0-0.4 0-1.1 0.3-0.4 0.3-1.1-0.3-0.4-0.3-1.1 0-0.4-0.4-0.8-31.8-66.2-65.9-129.9c-13.7-25.5-21.8-43.6-48.1-59.9q-0.7-0.4-1.1-1.1 0-0.8 0-1.5 0.4-0.7 0.8-1.1 0.7-0.4 1.4-0.8 19.6-1.1 40-0.3c20 0.7 34.8 5.5 43.3 23.7q25.5 55.5 53.7 109.9 0 0 0 0.3 0.3 0 0.3 0 0 0 0 0.4 0.4 0 0.4 0zm-465.9-112.9q32.9-15.1 69.2-12.9 0.4 0 0.7 0 0.4 0.4 0.8 0.7 0 0.4 0 0.8 0 0.3 0 0.7-1.9 4.1-7.1 4.4c-19.2 1.5-52.5 11.9-62.5 30q-3 4.8-3 13.7 0.4 67.7 0.4 141.8 0 3.7-4.1 3.7h-45.9q-2.6 0-2.6-2.6-0.3-70 0-139.2c0-25.9-1.8-43.7-26.2-53.6q-1.1-0.4-1.5-1.5-0.8-0.8-0.4-1.9 0-1.1 0.8-1.8 1.1-0.8 1.8-0.8 24.4-0.7 50.3 1.1c11.5 0.8 17.8 10.4 25.6 17.1q1.5 1.4 3.7 0.3zm774.9 48.9c15.2-1.9 41.8-5.2 47.8-20.7q0.3-1.5 1.1 0 0.3 1.1-0.4 2.2-0.7 1.1-0.7 1.5c-7.8 20.7-29.6 32.5-48.1 41.4q-0.8 0-1.2 0.4-0.3 0.4-0.7 0.7 0 0.4-0.4 1.1 0 0.4 0 0.8-0.3 22.9 0 45.9c0.4 27.3-1.1 43.3 24.5 54.7q0.7 0.4 1.4 1.5 0.4 0.8 0 1.9 0 1.1-0.7 1.4-0.7 0.8-1.9 0.8c-27.7 1.5-65.8 7-77.7-26.3q0-0.7-0.7-1.5-0.4-0.3-1.1-0.7-0.8 0-1.5 0-0.7 0-1.1 0.7-42.2 29.6-94 28.5c-28.9-0.7-68.5-20-60-55.5 11.9-47 112.9-66.6 152.9-68.8q0.7-0.4 1.1-0.4 0.7-0.4 1.1-0.7 0.4-0.4 0.7-1.1 0-0.4 0.4-1.2 1.9-18.8-7.8-33.3c-15.9-24.4-61.8-32.5-88.4-32.5q-0.4 0-0.8-0.4-0.7 0-0.7-0.7-0.4-0.4 0-1.1 0-0.4 0.4-0.8 5.9-4.8 14-4.4c53.3 0.3 132.5-5.9 140.3 64.7q0.4 2.3 2.2 1.9zm-140.6 99.9c22.6 20.7 61.8-3.7 84.4-18.5q0.3-0.4 0.7-0.4 0.4-0.3 0.4-0.7 0.3-0.7 0.3-1.1 0-0.4 0.4-0.8v-44.4q0-2.6-2.6-2.2-28.8 3.7-59.6 13.7c-21 7-48.1 32.6-24 54.4zm-1120.2-70.3c1.1-15.5-4.1-38.1 10.3-48.1q23-15.9 52.6-32.2 28.5-15.6 65.5-13.3c30.7 2.2 64.4 26.6 47 61-19.6 38.9-84.4 56.3-124.7 60q-1.9 0.4-2.3 2.2c-3.7 23.7 4.9 40.7 26.3 52.6q47.4 25.1 99.6 1.4 2.9-1.4 4.8-1.4 0.7-0.4 1.5 0.3 0.7 0.4 0.7 1.1 0.4 0.8 0.4 1.5-0.4 0.8-1.1 1.1c-27.4 20.7-55.6 18.9-91.8 18.5-38.1-0.7-65.2-6.3-83.3-39.2-6.3-11.8-4.8-25.5-5.2-38.9q0-0.3 0-0.7 0-0.4-0.3-0.7 0-0.8-0.4-1.2-0.4 0-0.7-0.3c-12.3-10-24.1-16.3-28.5-33q0-0.7-0.8-1.8-0.4-0.7-0.7-1.5-0.4-0.7 0.3 0 11.5 12.2 28.9 14.1 1.9 0.3 1.9-1.5zm122.5-45.9c-13.7-36.6-53.3-17-72.9-0.7q-1.9 1.4-1.9 4l0.4 44.1q0 0.3 0 1.1 0.3 0.4 0.7 0.7 0.4 0.4 1.1 0.4 0.4 0.4 1.1 0c26.3-4.4 60.4-10.7 71.1-41.1q1.8-4.4 0.4-8.5zm485.5 45.9c1.5-17-5.2-38.1 11.5-49.6 38.5-25.2 76.2-51.1 125.1-42.9 19.2 3.3 40.3 16.3 42.9 37.4 7 54.4-91.8 79.1-129.2 82.9q-2.2 0.3-2.2 2.2c-2.2 20 2.2 36.6 20 47.7 34.8 23.3 72.5 21.1 110.3 4.1q0.7-0.8 1.8-0.4 0.8 0.4 1.5 1.1 0.4 1.1 0.4 1.9-0.4 1.1-1.1 1.8c-20 14.5-36.3 17.8-62.9 18.2-42.2 0.7-96.6 5.1-115.1-44.8-3.7-9.6-2.6-22.2-2.6-33q0-2.2-1.5-3.3c-13-10-24.8-16.3-28.9-34.4q11.9 10.4 27.8 12.9 1.8 0 2.2-1.8zm121-48.1c-12.6-35.2-53.3-11.9-71.8 1.1q-0.3 0.4-0.7 0.7-0.4 0.4-0.4 0.8-0.4 0.3-0.4 1.1 0 0.4 0 0.7c0 0.3 0 45.7 0 45.9q0.4 0.4 0.8 0.8 0 0.3 0.7 0.3 0.4 0 0.8 0c21.8-2.6 51-9.2 65.8-27.4q9.7-11.8 5.2-24z"/></svg>